<svg width="43" height="40" viewBox="0 0 43 40" fill="none" xmlns="http://www.w3.org/2000/svg">
<path d="M2.15553 0.60119C1.75799 0.595895 1.37853 0.7724 1.11894 1.08336C0.85935 1.39431 0.746201 1.80789 0.809845 2.21315L6.52229 38.0237C6.6692 38.9283 7.42388 39.5934 8.31205 39.6009H35.717C36.3836 39.6098 36.9561 39.1133 37.0627 38.4337L42.7751 2.2201C42.8388 1.81484 42.7256 1.40126 42.466 1.09031C42.2064 0.779348 41.827 0.602843 41.4294 0.608138L2.15553 0.60119ZM26.2097 26.4829H17.4627L15.0943 13.7053H28.3292L26.2097 26.4829Z" fill="#2684FF"/>
<path fillRule="evenodd" clipRule="evenodd" d="M40.9586 13.7056L28.3293 13.7056L26.2099 26.4831H17.4629L7.13477 39.1426C7.46212 39.4349 7.87949 39.5975 8.31224 39.6012H35.7239C36.3905 39.61 36.963 39.1135 37.0696 38.4339L40.9586 13.7056Z" fill="url(#paint0_linear_194_402)"/>
<defs>
<linearGradient id="paint0_linear_194_402" x1="43.8788" y1="17.2838" x2="28.6566" y2="38.214" gradientUnits="userSpaceOnUse">
<stop offset="0.18" stop-color="#0052CC"/>
<stop offset="1" stop-color="#2684FF"/>
</linearGradient>
</defs>
</svg>
