<svg width="28" height="28" viewBox="0 0 28 28" fill="none" xmlns="http://www.w3.org/2000/svg">
<path d="M12.6 0.749182C11.7764 0.272706 10.82 0 9.8 0C6.7072 0 4.2 2.5072 4.2 5.6V8.08391C3.00853 8.56302 2.032 9.30699 1.31776 10.2891C0.409346 11.5381 0 13.0686 0 14.7C0 16.886 1.11341 18.8098 2.8 19.9388V21.7C2.8 25.1794 5.62061 28 9.1 28C10.3951 28 11.599 27.6093 12.6 26.9391V21.7C12.6 19.8338 12.138 18.6406 11.3963 17.8371C10.6364 17.0139 9.40271 16.4031 7.46984 16.081L7.93016 13.319C9.75243 13.6227 11.3481 14.1922 12.6 15.1579V0.749182ZM15.4 0.749182V15.1579C16.6519 14.1922 18.2476 13.6227 20.0698 13.319L20.5302 16.081C18.5973 16.4031 17.3636 17.0139 16.6037 17.8371C15.862 18.6406 15.4 19.8338 15.4 21.7V26.9391C16.401 27.6093 17.6049 28 18.9 28C22.3794 28 25.2 25.1794 25.2 21.7V19.9388C26.8866 18.8098 28 16.886 28 14.7C28 13.0686 27.5906 11.5381 26.6822 10.2891C25.968 9.30699 24.9915 8.56302 23.8 8.08391V5.6C23.8 2.5072 21.2927 0 18.2 0C17.18 0 16.2236 0.272706 15.4 0.749182Z" fill="#8C52FF"/>
</svg>
