<svg width="183" height="334" viewBox="0 0 183 334" fill="none" xmlns="http://www.w3.org/2000/svg">
<path opacity="0.1" d="M148.727 -106.678C157.659 -119.03 174.034 -123.418 187.946 -117.187L213.849 -105.585C222.216 -101.838 231.784 -101.838 240.15 -105.585L266.053 -117.187C279.965 -123.418 296.34 -119.03 305.272 -106.678L321.903 -83.679C327.275 -76.2505 335.561 -71.4666 344.68 -70.5286L372.914 -67.6253C388.077 -66.0657 400.065 -54.0777 401.625 -38.9143L404.528 -10.6809C405.466 -1.56178 410.25 6.72456 417.678 12.0964L440.677 28.7273C453.029 37.6595 457.417 54.0345 451.186 67.946L439.585 93.8493C435.837 102.216 435.837 111.784 439.585 120.15L451.186 146.053C457.417 159.965 453.029 176.34 440.677 185.272L417.678 201.903C410.25 207.275 405.466 215.561 404.528 224.68L401.625 252.914C400.065 268.077 388.077 280.065 372.914 281.625L344.68 284.528C335.561 285.466 327.275 290.25 321.903 297.678L305.272 320.677C296.34 333.029 279.965 337.417 266.053 331.186L240.15 319.585C231.784 315.837 222.216 315.837 213.849 319.585L187.946 331.186C174.034 337.417 157.659 333.029 148.727 320.677L132.096 297.678C126.725 290.25 118.438 285.466 109.319 284.528L81.0857 281.625C65.9223 280.065 53.9343 268.077 52.3747 252.914L49.4714 224.68C48.5334 215.561 43.7495 207.275 36.321 201.903L13.322 185.272C0.969992 176.34 -3.4177 159.965 2.81319 146.053L14.4148 120.15C18.1621 111.784 18.1621 102.216 14.4148 93.8493L2.81319 67.946C-3.41769 54.0345 0.969993 37.6595 13.322 28.7273L36.321 12.0964C43.7495 6.72456 48.5334 -1.56177 49.4714 -10.6809L52.3747 -38.9143C53.9343 -54.0777 65.9223 -66.0657 81.0857 -67.6253L109.319 -70.5286C118.438 -71.4666 126.725 -76.2505 132.096 -83.679L148.727 -106.678Z" fill="#8C52FF"/>
</svg>
