<svg width="199" height="48" viewBox="0 0 199 48" fill="none" xmlns="http://www.w3.org/2000/svg">
<path d="M11.8324 4.48551L16.9808 23.6999V2.5752C17.3891 2.47993 17.8017 2.39604 18.2183 2.32386V23.7019L24.0091 2.09058C24.4264 2.12836 24.8403 2.17779 25.2506 2.23855L19.4132 24.024L31.0164 3.92661C31.3944 4.09667 31.7668 4.27708 32.1331 4.4675L20.4866 24.6398L37.1134 8.01298C37.4132 8.29646 37.705 8.58827 37.9884 8.88806L21.3591 25.5173L41.5338 13.8695C41.7242 14.2358 41.9046 14.6082 42.0746 14.9862L21.9822 26.5865L43.7617 20.7507C43.8224 21.161 43.8719 21.5749 43.9096 21.9923L22.2986 27.7829L43.676 27.7829C43.6038 28.1996 43.5199 28.6122 43.4246 29.0204L22.2953 29.0204L41.5134 34.1699C41.316 34.5478 41.108 34.9193 40.8897 35.284L21.9804 30.2172L37.774 39.3357C37.475 39.6431 37.1671 39.9419 36.8508 40.2315L21.3631 31.2897L33.0823 43.009C32.7116 43.2256 32.334 43.4316 31.95 43.6267L20.4867 32.1635L27.9976 45.1726C27.5863 45.2889 27.1702 45.3935 26.7496 45.486L19.4139 32.7804L22.9508 45.9799C22.6355 45.9933 22.3185 46.0001 22 46.0001C21.8913 46.0001 21.7827 45.9993 21.6744 45.9977L18.2183 33.0996V45.6763C17.8017 45.6041 17.3891 45.5202 16.9808 45.4249V33.1017L13.9336 44.4742C13.5449 44.321 13.1616 44.157 12.7841 43.9826L15.785 32.7831L10.1517 42.5403C9.80299 42.3169 9.46095 42.084 9.12601 41.8419L14.715 32.1615L6.88799 39.9885C6.5882 39.705 6.29638 39.4132 6.0129 39.1135L13.8375 31.2889L4.15979 36.8763C3.91764 36.5414 3.68468 36.1994 3.4613 35.8507L13.2231 30.2147L2.018 33.2171C1.8436 32.8396 1.67957 32.4564 1.5263 32.0677L12.8988 29.0204L0.575409 29.0204C0.480119 28.6122 0.396197 28.1996 0.323994 27.7829L12.8955 27.7829L0.00239765 24.3282C0.000801063 24.219 0 24.1096 0 24.0001C0 23.6824 0.00673449 23.3662 0.0200685 23.0518L13.2213 26.5891L0.513622 19.2523C0.606152 18.8316 0.71072 18.4155 0.826947 18.0043L13.8414 25.5181L2.37334 14.0501C2.56845 13.666 2.77449 13.2884 2.99107 12.9177L14.7152 24.6418L5.76977 9.14795C6.05942 8.83159 6.35821 8.52372 6.66571 8.22477L15.7858 24.0212L10.7183 5.10905C11.0829 4.89081 11.4544 4.68283 11.8324 4.48551Z" fill="#4E4E4E"/>
<path d="M57.8479 33.9091H62.6359V25.5931H72.1839V21.3651H62.6359V17.8091H72.7999V13.6091H57.8479V33.9091Z" fill="#4E4E4E"/>
<path d="M80.9376 21.9811C82.7576 21.9811 84.2136 23.1011 84.2136 26.3211C84.2136 29.4851 82.8136 30.6891 80.9376 30.6891C79.0616 30.6891 77.6616 29.4851 77.6616 26.3211C77.6616 23.1011 79.1176 21.9811 80.9376 21.9811ZM80.9376 18.3971C76.7656 18.3971 72.9576 20.8611 72.9576 26.3211C72.9576 31.7811 76.7656 34.2731 80.9376 34.2731C85.1096 34.2731 88.9176 31.7811 88.9176 26.3211C88.9176 20.8611 85.1096 18.3971 80.9376 18.3971Z" fill="#4E4E4E"/>
<path d="M97.789 18.3971C93.225 18.3971 90.089 21.5051 90.089 26.2931C90.089 31.0811 92.833 34.2731 97.789 34.2731C100.813 34.2731 104.425 32.8451 105.461 28.3651H101.149C100.813 29.7931 99.777 30.6891 98.069 30.6891C96.417 30.6891 94.793 29.5971 94.793 26.3211C94.793 23.1011 96.417 21.9811 98.069 21.9811C99.441 21.9811 100.533 22.5971 100.953 24.3611H105.265C104.369 19.8251 100.925 18.3971 97.789 18.3971Z" fill="#4E4E4E"/>
<path d="M116.317 24.5011C110.465 24.9491 106.293 26.1531 106.293 29.8491C106.293 32.5931 108.645 34.2731 111.501 34.2731C113.657 34.2731 115.449 33.6851 116.569 32.0891L116.625 33.9091H121.161C120.937 32.9571 120.825 31.1931 120.825 29.5411V27.9731L120.881 24.6971C120.965 20.1331 118.501 18.3691 114.161 18.3691C109.681 18.3691 106.993 20.8891 106.769 23.7171H111.081C111.277 22.2611 112.285 21.5051 113.769 21.5051C115.449 21.5051 116.317 22.1211 116.317 23.9131V24.5011ZM116.429 27.5811C116.429 30.3531 115.029 31.1371 113.181 31.1371C111.977 31.1371 111.053 30.4931 111.053 29.5131C111.053 27.8891 113.209 27.5251 116.429 27.2171V27.5811Z" fill="#4E4E4E"/>
<path d="M127.872 13.6091H123.252V33.9091H127.872V13.6091Z" fill="#4E4E4E"/>
<path d="M130.817 13.6091V33.9091H135.605V26.8811H138.629C143.893 26.8811 147.841 25.5651 147.841 20.2171C147.841 14.8971 143.893 13.6091 138.629 13.6091H130.817ZM138.769 17.6411C141.009 17.6411 142.773 18.0891 142.773 20.2171C142.773 22.3451 141.009 22.8491 138.769 22.8491H135.605V17.6411H138.769Z" fill="#4E4E4E"/>
<path d="M155.958 21.9811C157.778 21.9811 159.234 23.1011 159.234 26.3211C159.234 29.4851 157.834 30.6891 155.958 30.6891C154.082 30.6891 152.682 29.4851 152.682 26.3211C152.682 23.1011 154.138 21.9811 155.958 21.9811ZM155.958 18.3971C151.786 18.3971 147.978 20.8611 147.978 26.3211C147.978 31.7811 151.786 34.2731 155.958 34.2731C160.13 34.2731 163.938 31.7811 163.938 26.3211C163.938 20.8611 160.13 18.3971 155.958 18.3971Z" fill="#4E4E4E"/>
<path d="M165.787 18.8451V33.9091H170.435V18.8451H165.787ZM165.787 13.6091V17.3051H170.407V13.6091H165.787Z" fill="#4E4E4E"/>
<path d="M177.804 18.8451H173.184V33.9091H177.804V26.1811C177.804 23.3811 178.616 22.0931 180.604 22.0931C182.844 22.0931 182.928 23.8571 182.928 26.0131V33.9091H187.548V24.8651C187.548 20.7771 186.344 18.5091 182.48 18.5091C180.1 18.5091 178.476 19.7131 177.804 20.8331V18.8451Z" fill="#4E4E4E"/>
<path d="M190.742 18.8451H188.362V22.1211H190.742V29.6811C190.742 33.1811 192.002 33.9091 195.726 33.9091H198.666V30.5771H197.35C195.81 30.5771 195.362 30.2971 195.362 28.8691V22.1211H198.666V18.8451H195.362V14.7291H190.742V18.8451Z" fill="#4E4E4E"/>
</svg>
