<svg width="28" height="28" viewBox="0 0 28 28" fill="none" xmlns="http://www.w3.org/2000/svg">
<path d="M11.2216 0.203881C9.26769 -0.428624 7.14364 0.451176 6.20926 2.28006L5.08594 4.47875C4.95247 4.74 4.74 4.95247 4.47875 5.08594L2.28006 6.20926C0.451176 7.14364 -0.428624 9.26769 0.203881 11.2216L0.964292 13.5706C1.05464 13.8497 1.05464 14.1502 0.964292 14.4293L0.203881 16.7783C-0.428624 18.7323 0.451176 20.8563 2.28006 21.7907L4.47875 22.9139C4.74 23.0475 4.95247 23.2599 5.08594 23.5212L6.20926 25.7199C7.14364 27.5488 9.26769 28.4286 11.2216 27.7961L13.5706 27.0357C13.8497 26.9453 14.1502 26.9453 14.4293 27.0357L16.7783 27.7961C18.7323 28.4286 20.8563 27.5488 21.7907 25.7199L22.9139 23.5212C23.0475 23.2599 23.2599 23.0475 23.5212 22.9139L25.7199 21.7907C27.5488 20.8563 28.4286 18.7323 27.7961 16.7783L27.0357 14.4293C26.9453 14.1502 26.9453 13.8497 27.0357 13.5706L27.7961 11.2216C28.4286 9.26769 27.5488 7.14364 25.7199 6.20926L23.5212 5.08594C23.2599 4.95247 23.0475 4.74 22.9139 4.47875L21.7907 2.28006C20.8563 0.451176 18.7323 -0.428624 16.7783 0.203881L14.4293 0.964292C14.1502 1.05463 13.8497 1.05464 13.5706 0.964292L11.2216 0.203881ZM6.69469 13.6616L8.66621 11.69L12.6092 15.6331L20.4954 7.74705L22.4669 9.71856L12.6092 19.5761L6.69469 13.6616Z" fill="#8C52FF"/>
</svg>
