<svg width="270" height="220" viewBox="0 0 270 220" fill="none" xmlns="http://www.w3.org/2000/svg">
<path opacity="0.32" d="M188.699 -100.005C198.565 -104.424 210.179 -101.312 216.515 -92.5514L228.311 -76.2392C232.121 -70.9705 237.997 -67.5775 244.465 -66.9123L264.49 -64.8528C275.245 -63.7466 283.747 -55.2447 284.853 -44.49L286.912 -24.4653C287.578 -17.9975 290.97 -12.1206 296.239 -8.31062L312.551 3.48537C321.312 9.82061 324.424 21.4346 320.005 31.3014L311.776 49.6731C309.118 55.607 309.118 62.393 311.776 68.3269L320.005 86.6986C324.424 96.5654 321.312 108.179 312.551 114.515L296.239 126.311C290.971 130.121 287.578 135.997 286.912 142.465L284.853 162.49C283.747 173.245 275.245 181.747 264.49 182.853L244.465 184.912C237.997 185.578 232.121 188.97 228.311 194.239L216.515 210.551C210.179 219.312 198.565 222.424 188.699 218.005L170.327 209.776C164.393 207.118 157.607 207.118 151.673 209.776L133.301 218.005C123.435 222.424 111.821 219.312 105.485 210.551L93.6894 194.239C89.8794 188.97 84.0025 185.578 77.5347 184.912L57.51 182.853C46.7553 181.747 38.2534 173.245 37.1472 162.49L35.0877 142.465C34.4225 135.997 31.0295 130.121 25.7608 126.311L9.44862 114.515C0.687907 108.179 -2.42404 96.5654 1.99534 86.6986L10.2241 68.3269C12.8819 62.393 12.8819 55.607 10.2241 49.6731L1.99535 31.3014C-2.42404 21.4346 0.687904 9.82061 9.44862 3.48537L25.7608 -8.31061C31.0295 -12.1206 34.4225 -17.9975 35.0877 -24.4653L37.1472 -44.49C38.2534 -55.2446 46.7553 -63.7466 57.51 -64.8528L77.5347 -66.9123C84.0025 -67.5775 89.8794 -70.9705 93.6894 -76.2392L105.485 -92.5514C111.821 -101.312 123.435 -104.424 133.301 -100.005L151.673 -91.7759C157.607 -89.1181 164.393 -89.1181 170.327 -91.7759L188.699 -100.005Z" fill="white"/>
</svg>
