<svg width="43" height="45" viewBox="0 0 43 45" fill="none" xmlns="http://www.w3.org/2000/svg">
<path d="M1.67052 25.2208C0.499799 24.0501 0.499801 22.152 1.67052 20.9813L19.6727 2.97911C20.8434 1.80839 22.7415 1.8084 23.9123 2.97912L41.9144 20.9813C43.0852 22.152 43.0852 24.0501 41.9144 25.2209L23.9123 43.223C22.7415 44.3938 20.8434 44.3938 19.6727 43.223L1.67052 25.2208Z" fill="#EE513B"/>
<path d="M13.8504 0.540527L11.3438 3.04717L17.8177 9.52116C17.5559 10.083 17.4097 10.7096 17.4097 11.3704C17.4097 13.2465 18.5884 14.8472 20.2456 15.4724V31.3094C18.5884 31.9347 17.4097 33.5354 17.4097 35.4114C17.4097 37.832 19.3719 39.7943 21.7925 39.7943C24.213 39.7943 26.1753 37.832 26.1753 35.4114C26.1753 33.7106 25.2064 32.236 23.7905 31.5095V15.4939L29.9791 21.6825C29.73 22.233 29.5913 22.8441 29.5913 23.4876C29.5913 25.9082 31.5535 27.8704 33.9741 27.8704C36.3947 27.8704 38.3569 25.9082 38.3569 23.4876C38.3569 21.067 36.3947 19.1048 33.9741 19.1048C33.5037 19.1048 33.0507 19.1789 32.6259 19.3161L25.9795 12.6696C26.1068 12.2591 26.1753 11.8228 26.1753 11.3704C26.1753 8.94986 24.213 6.98761 21.7925 6.98761C21.3401 6.98761 20.9038 7.05614 20.4932 7.18338L13.8504 0.540527Z" fill="white"/>
</svg>
