<svg width="240" height="240" viewBox="0 0 240 240" fill="none" xmlns="http://www.w3.org/2000/svg">
<path opacity="0.1" d="M140.645 1.48722C147.999 -1.80674 156.655 0.512723 161.377 7.04245L170.169 19.2006C173.009 23.1276 177.389 25.6565 182.21 26.1523L197.135 27.6874C205.151 28.5118 211.488 34.8487 212.313 42.8646L213.848 57.7898C214.343 62.6106 216.872 66.9908 220.799 69.8306L232.958 78.6226C239.487 83.3446 241.807 92.0009 238.513 99.3551L232.38 113.048C230.399 117.471 230.399 122.529 232.38 126.952L238.513 140.645C241.807 147.999 239.487 156.655 232.958 161.377L220.799 170.169C216.872 173.009 214.343 177.389 213.848 182.21L212.313 197.135C211.488 205.151 205.151 211.488 197.135 212.313L182.21 213.848C177.389 214.343 173.009 216.872 170.169 220.799L161.377 232.958C156.655 239.487 147.999 241.807 140.645 238.513L126.952 232.38C122.529 230.399 117.471 230.399 113.048 232.38L99.3551 238.513C92.0009 241.807 83.3446 239.487 78.6226 232.958L69.8306 220.799C66.9908 216.872 62.6106 214.343 57.7898 213.848L42.8646 212.313C34.8487 211.488 28.5118 205.151 27.6874 197.135L26.1523 182.21C25.6565 177.389 23.1276 173.009 19.2006 170.169L7.04245 161.377C0.512725 156.655 -1.80674 147.999 1.48721 140.645L7.62044 126.952C9.60143 122.529 9.60143 117.471 7.62044 113.048L1.48722 99.3551C-1.80674 92.0009 0.512724 83.3446 7.04245 78.6226L19.2006 69.8306C23.1276 66.9908 25.6565 62.6106 26.1523 57.7898L27.6874 42.8646C28.5118 34.8487 34.8487 28.5118 42.8646 27.6874L57.7898 26.1523C62.6106 25.6565 66.9908 23.1276 69.8306 19.2006L78.6226 7.04245C83.3446 0.512725 92.0009 -1.80674 99.3551 1.48721L113.048 7.62044C117.471 9.60142 122.529 9.60143 126.952 7.62044L140.645 1.48722Z" fill="#8C52FF"/>
</svg>
