<svg width="454" height="152" viewBox="0 0 454 152" fill="none" xmlns="http://www.w3.org/2000/svg">
<path opacity="0.1" d="M148.727 -288.678C157.659 -301.03 174.034 -305.418 187.946 -299.187L213.849 -287.585C222.216 -283.838 231.784 -283.838 240.15 -287.585L266.053 -299.187C279.965 -305.418 296.34 -301.03 305.272 -288.678L321.903 -265.679C327.275 -258.25 335.561 -253.467 344.68 -252.529L372.914 -249.625C388.077 -248.066 400.065 -236.078 401.625 -220.914L404.528 -192.681C405.466 -183.562 410.25 -175.275 417.678 -169.904L440.677 -153.273C453.029 -144.34 457.417 -127.966 451.186 -114.054L439.585 -88.1507C435.837 -79.7842 435.837 -70.2164 439.585 -61.8499L451.186 -35.9466C457.417 -22.035 453.029 -5.66003 440.677 3.27219L417.678 19.903C410.25 25.2749 405.466 33.5612 404.528 42.6804L401.625 70.9138C400.065 86.0771 388.077 98.0652 372.914 99.6247L344.68 102.528C335.561 103.466 327.275 108.25 321.903 115.678L305.272 138.677C296.34 151.029 279.965 155.417 266.053 149.186L240.15 137.585C231.784 133.837 222.216 133.837 213.849 137.585L187.946 149.186C174.034 155.417 157.659 151.029 148.727 138.677L132.096 115.678C126.725 108.25 118.438 103.466 109.319 102.528L81.0857 99.6247C65.9223 98.0652 53.9343 86.0771 52.3747 70.9138L49.4714 42.6804C48.5334 33.5612 43.7495 25.2749 36.321 19.903L13.322 3.27219C0.969992 -5.66003 -3.4177 -22.035 2.81319 -35.9466L14.4148 -61.8499C18.1621 -70.2164 18.1621 -79.7842 14.4148 -88.1507L2.81319 -114.054C-3.41769 -127.966 0.969993 -144.34 13.322 -153.273L36.321 -169.904C43.7495 -175.275 48.5334 -183.562 49.4714 -192.681L52.3747 -220.914C53.9343 -236.078 65.9223 -248.066 81.0857 -249.625L109.319 -252.529C118.438 -253.467 126.725 -258.251 132.096 -265.679L148.727 -288.678Z" fill="#8C52FF"/>
</svg>
