<svg width="317" height="205" viewBox="0 0 317 205" fill="none" xmlns="http://www.w3.org/2000/svg">
<path opacity="0.1" d="M148.727 13.322C157.659 0.969992 174.034 -3.4177 187.946 2.81319L213.849 14.4148C222.216 18.1621 231.784 18.1621 240.15 14.4148L266.053 2.81319C279.965 -3.4177 296.34 0.969989 305.272 13.322L321.903 36.321C327.275 43.7495 335.561 48.5334 344.68 49.4714L372.914 52.3747C388.077 53.9343 400.065 65.9223 401.625 81.0857L404.528 109.319C405.466 118.438 410.25 126.725 417.678 132.096L440.677 148.727C453.029 157.66 457.417 174.034 451.186 187.946L439.585 213.849C435.837 222.216 435.837 231.784 439.585 240.15L451.186 266.053C457.417 279.965 453.029 296.34 440.677 305.272L417.678 321.903C410.25 327.275 405.466 335.561 404.528 344.68L401.625 372.914C400.065 388.077 388.077 400.065 372.914 401.625L344.68 404.528C335.561 405.466 327.275 410.25 321.903 417.678L305.272 440.677C296.34 453.029 279.965 457.417 266.053 451.186L240.15 439.585C231.784 435.837 222.216 435.837 213.849 439.585L187.946 451.186C174.034 457.417 157.659 453.029 148.727 440.677L132.096 417.678C126.725 410.25 118.438 405.466 109.319 404.528L81.0857 401.625C65.9223 400.065 53.9343 388.077 52.3747 372.914L49.4714 344.68C48.5334 335.561 43.7495 327.275 36.321 321.903L13.322 305.272C0.969992 296.34 -3.4177 279.965 2.81319 266.053L14.4148 240.15C18.1621 231.784 18.1621 222.216 14.4148 213.849L2.81319 187.946C-3.41769 174.034 0.969993 157.66 13.322 148.727L36.321 132.096C43.7495 126.725 48.5334 118.438 49.4714 109.319L52.3747 81.0857C53.9343 65.9223 65.9223 53.9343 81.0857 52.3747L109.319 49.4714C118.438 48.5334 126.725 43.7495 132.096 36.321L148.727 13.322Z" fill="#8C52FF"/>
</svg>
