<svg width="205" height="454" viewBox="0 0 205 454" fill="none" xmlns="http://www.w3.org/2000/svg">
<path opacity="0.1" d="M-100.273 13.322C-91.3405 0.969992 -74.9656 -3.4177 -61.054 2.81319L-35.1507 14.4148C-26.7842 18.1621 -17.2164 18.1621 -8.8499 14.4148L17.0534 2.81319C30.965 -3.4177 47.34 0.969989 56.2722 13.322L72.903 36.321C78.2749 43.7495 86.5612 48.5334 95.6804 49.4714L123.914 52.3747C139.077 53.9343 151.065 65.9223 152.625 81.0857L155.528 109.319C156.466 118.438 161.25 126.725 168.678 132.096L191.677 148.727C204.029 157.66 208.417 174.034 202.186 187.946L190.585 213.849C186.837 222.216 186.837 231.784 190.585 240.15L202.186 266.053C208.417 279.965 204.029 296.34 191.677 305.272L168.678 321.903C161.25 327.275 156.466 335.561 155.528 344.68L152.625 372.914C151.065 388.077 139.077 400.065 123.914 401.625L95.6804 404.528C86.5612 405.466 78.2749 410.25 72.903 417.678L56.2722 440.677C47.34 453.029 30.965 457.417 17.0534 451.186L-8.8499 439.585C-17.2164 435.837 -26.7842 435.837 -35.1507 439.585L-61.054 451.186C-74.9656 457.417 -91.3405 453.029 -100.273 440.677L-116.904 417.678C-122.275 410.25 -130.562 405.466 -139.681 404.528L-167.914 401.625C-183.078 400.065 -195.066 388.077 -196.625 372.914L-199.529 344.68C-200.467 335.561 -205.25 327.275 -212.679 321.903L-235.678 305.272C-248.03 296.34 -252.418 279.965 -246.187 266.053L-234.585 240.15C-230.838 231.784 -230.838 222.216 -234.585 213.849L-246.187 187.946C-252.418 174.034 -248.03 157.66 -235.678 148.727L-212.679 132.096C-205.25 126.725 -200.467 118.438 -199.529 109.319L-196.625 81.0857C-195.066 65.9223 -183.078 53.9343 -167.914 52.3747L-139.681 49.4714C-130.562 48.5334 -122.275 43.7495 -116.904 36.321L-100.273 13.322Z" fill="#8C52FF"/>
</svg>
