<svg width="43" height="43" viewBox="0 0 43 43" fill="none" xmlns="http://www.w3.org/2000/svg">
<rect x="0.79248" y="0.101074" width="42" height="42" fill="#FFCA28"/>
<path d="M26.2925 35.0329L29.3848 32.9867C29.6271 33.7481 31.1617 35.5563 33.1002 35.5563C35.0386 35.5563 35.9386 34.4975 35.9386 33.7956C35.9386 31.8828 33.9592 31.2084 33.0085 30.8845C32.8536 30.8317 32.7259 30.7882 32.6386 30.7502C32.5939 30.7307 32.5262 30.7049 32.4393 30.6717C31.3819 30.2677 27.4809 28.7773 27.4809 24.4571C27.4809 19.6986 32.0732 19.1514 33.1117 19.1514C33.7911 19.1514 37.0579 19.2346 38.6848 22.292L35.6848 24.3857C35.0271 23.0533 33.9344 22.6132 33.2617 22.6132C31.6002 22.6132 31.254 23.8313 31.254 24.3857C31.254 25.9415 33.0592 26.6389 34.5835 27.2277C34.9823 27.3817 35.3618 27.5283 35.6848 27.681C37.3463 28.4661 39.7925 29.7509 39.7925 33.7956C39.7925 35.8215 38.0933 39.1014 33.8156 39.1014C28.0694 39.1014 26.5463 35.6515 26.2925 35.0329Z" fill="#3E3E3E"/>
<path d="M11.2925 35.4392L14.5155 33.3941C14.768 34.155 15.7494 35.5581 17.1733 35.5581C18.5972 35.5581 19.326 34.0956 19.326 33.3941V19.6014H23.2898V33.3941C23.3539 35.2965 22.2988 39.1014 17.6423 39.1014C13.361 39.1014 11.5811 36.5569 11.2925 35.4392Z" fill="#3E3E3E"/>
</svg>
