<svg width="152" height="42" viewBox="0 0 152 42" fill="none" xmlns="http://www.w3.org/2000/svg">
<path d="M0 34.852V6.07944H11.3335C13.6751 6.07944 15.7006 6.50531 17.4123 7.35471C19.1217 8.20644 20.4518 9.41189 21.4025 10.9757C22.3579 12.5349 22.8356 14.3687 22.8356 16.477C22.8356 18.5622 22.3579 20.3866 21.4025 21.9505C20.4518 23.5096 19.1217 24.7128 17.4123 25.5622C15.7006 26.4139 13.6751 26.8374 11.3335 26.8374H6.57529V34.852H0ZM6.53783 21.2058H10.7996C12.5043 21.2058 13.818 20.8032 14.7429 19.9957C15.6655 19.1835 16.1291 18.0223 16.1291 16.5143C16.1291 15.0133 15.6655 13.852 14.7429 13.0329C13.818 12.2091 12.5043 11.7949 10.7996 11.7949H6.53783V21.2058Z" fill="#F9DC00"/>
<path d="M37.3918 35.4292C34.8815 35.4292 32.7225 34.9288 30.9195 33.9305C29.1141 32.9252 27.7208 31.4987 26.742 29.6486C25.7609 27.8008 25.2715 25.5877 25.2715 23.0116V6.07944H31.8468V22.5648C31.8468 27.0026 33.6943 29.2204 37.3918 29.2204C41.0868 29.2204 42.9367 27.0026 42.9367 22.5648V6.07944H49.512V23.0116C49.512 25.5877 49.0203 27.8008 48.0415 29.6486C47.0603 31.4987 45.6671 32.9252 43.864 33.9305C42.0586 34.9288 39.902 35.4292 37.3918 35.4292Z" fill="#F9DC00"/>
<path d="M54.2261 34.852V6.07944H65.5596C67.9012 6.07944 69.9267 6.50531 71.6384 7.35471C73.3478 8.20644 74.6779 9.41189 75.6286 10.9757C76.5839 12.5349 77.0616 14.3687 77.0616 16.477C77.0616 18.5622 76.5839 20.3866 75.6286 21.9505C74.6779 23.5096 73.3478 24.7128 71.6384 25.5622C69.9267 26.4139 67.9012 26.8374 65.5596 26.8374H60.8014V34.852H54.2261ZM60.7639 21.2058H65.0257C66.7304 21.2058 68.044 20.8032 68.969 19.9957C69.8916 19.1835 70.3552 18.0223 70.3552 16.5143C70.3552 15.0133 69.8916 13.852 68.969 13.0329C68.044 12.2091 66.7304 11.7949 65.0257 11.7949H60.7639V21.2058Z" fill="#F9DC00"/>
<path d="M79.7881 34.852V6.07944H86.3636V34.852H79.7881Z" fill="#F9DC00"/>
<path d="M91.3696 34.852V6.07944H97.9449V28.727H110.599V34.852H91.3696Z" fill="#F9DC00"/>
<path d="M126.982 35.4292C123.978 35.4292 121.308 34.7939 118.973 33.5209C116.644 32.2433 114.824 30.4817 113.513 28.2337C112.206 25.988 111.555 23.3979 111.555 20.4611C111.555 17.5336 112.206 14.9458 113.513 12.6978C114.824 10.4521 116.644 8.6928 118.973 7.41986C121.308 6.14227 123.978 5.50231 126.982 5.50231C130.017 5.50231 132.691 6.14227 135.009 7.41986C137.325 8.6928 139.144 10.4521 140.47 12.6978C141.793 14.9458 142.455 17.5336 142.455 20.4611C142.455 23.3979 141.793 25.988 140.47 28.2337C139.144 30.4817 137.325 32.2433 135.009 33.5209C132.691 34.7939 130.017 35.4292 126.982 35.4292ZM118.252 20.4611C118.252 22.1925 118.622 23.7167 119.367 25.0316C120.116 26.3487 121.142 27.375 122.448 28.1127C123.76 28.8527 125.27 29.2204 126.982 29.2204C128.717 29.2204 130.241 28.8527 131.553 28.1127C132.864 27.375 133.885 26.3487 134.616 25.0316C135.346 23.7167 135.711 22.1925 135.711 20.4611C135.711 18.7367 135.346 17.2171 134.616 15.8999C133.885 14.5851 132.864 13.5588 131.553 12.8188C130.241 12.0811 128.717 11.7111 126.982 11.7111C125.27 11.7111 123.76 12.0811 122.448 12.8188C121.142 13.5588 120.116 14.5851 119.367 15.8999C118.622 17.2171 118.252 18.7367 118.252 20.4611Z" fill="#F9DC00"/>
<mask id="mask0_194_115" style="mask-type:luminance" maskUnits="userSpaceOnUse" x="109" y="0" width="43" height="42">
<path d="M109.738 -1.90735e-06H152V42H109.738V-1.90735e-06Z" fill="white"/>
</mask>
<g mask="url(#mask0_194_115)">
<path d="M152 21C152 21.6888 151.967 22.3753 151.899 23.0595C151.831 23.7437 151.728 24.4232 151.595 25.0981C151.459 25.7729 151.29 26.4385 151.091 27.0971C150.89 27.7556 150.656 28.4026 150.391 29.0379C150.127 29.6732 149.832 30.2945 149.506 30.8996C149.178 31.507 148.822 32.0957 148.438 32.6682C148.054 33.2407 147.642 33.7922 147.204 34.3228C146.764 34.8557 146.3 35.363 145.811 35.8494C145.322 36.3358 144.809 36.7989 144.275 37.234C143.739 37.6715 143.184 38.0788 142.61 38.4628C142.034 38.8444 141.442 39.1981 140.83 39.5216C140.219 39.8451 139.594 40.1383 138.955 40.4036C138.316 40.6665 137.665 40.8969 137.004 41.0971C136.342 41.2972 135.669 41.4624 134.993 41.5974C134.314 41.7324 133.63 41.8324 132.941 41.8999C132.251 41.9674 131.562 42 130.869 42C130.178 42 129.488 41.9674 128.799 41.8999C128.108 41.8324 127.425 41.7324 126.748 41.5974C126.069 41.4624 125.397 41.2972 124.736 41.0971C124.074 40.8969 123.423 40.6665 122.783 40.4036C122.144 40.1383 121.519 39.8451 120.908 39.5216C120.299 39.1981 119.704 38.8444 119.131 38.4628C118.555 38.0788 118 37.6715 117.463 37.234C116.929 36.7989 116.417 36.3358 115.927 35.8494C115.438 35.363 114.974 34.8557 114.534 34.3228C114.096 33.7922 113.684 33.2407 113.3 32.6682C112.916 32.0957 112.56 31.507 112.234 30.8996C111.907 30.2945 111.612 29.6732 111.347 29.0379C111.082 28.4026 110.848 27.7556 110.649 27.0971C110.448 26.4385 110.279 25.7729 110.143 25.0981C110.01 24.4232 109.909 23.7437 109.841 23.0595C109.773 22.3753 109.738 21.6888 109.738 21C109.738 20.3135 109.773 19.627 109.841 18.9428C109.909 18.2586 110.01 17.5791 110.143 16.9043C110.279 16.2294 110.448 15.5638 110.649 14.9052C110.848 14.2467 111.082 13.5997 111.347 12.9644C111.612 12.3291 111.907 11.7078 112.234 11.1027C112.56 10.4953 112.916 9.90658 113.3 9.33411C113.684 8.76163 114.096 8.2101 114.534 7.67952C114.974 7.14661 115.438 6.63697 115.927 6.1506C116.417 5.66655 116.929 5.20345 117.463 4.76828C118 4.33078 118.555 3.92121 119.131 3.53956C119.704 3.15791 120.299 2.80419 120.908 2.48072C121.519 2.15724 122.144 1.8617 122.783 1.59873C123.423 1.33577 124.074 1.10538 124.736 0.905251C125.397 0.705117 126.069 0.537564 126.748 0.404918C127.425 0.269945 128.108 0.169879 128.799 0.102392C129.488 0.0349052 130.178 -1.90735e-06 130.869 -1.90735e-06C131.562 -1.90735e-06 132.251 0.0349052 132.941 0.102392C133.63 0.169879 134.314 0.269945 134.993 0.404918C135.669 0.537564 136.342 0.705117 137.004 0.905251C137.665 1.10538 138.316 1.33577 138.955 1.59873C139.594 1.8617 140.219 2.15724 140.83 2.48072C141.442 2.80419 142.034 3.15791 142.61 3.53956C143.184 3.92121 143.739 4.33078 144.275 4.76828C144.809 5.20345 145.322 5.66655 145.811 6.1506C146.3 6.63697 146.764 7.14661 147.204 7.67952C147.642 8.2101 148.054 8.76163 148.438 9.33411C148.822 9.90658 149.178 10.4953 149.506 11.1027C149.832 11.7078 150.127 12.3291 150.391 12.9644C150.656 13.5997 150.89 14.2467 151.091 14.9052C151.29 15.5638 151.459 16.2294 151.595 16.9043C151.728 17.5791 151.831 18.2586 151.899 18.9428C151.967 19.627 152 20.3135 152 21Z" fill="#F9DC00"/>
</g>
<path d="M144.558 24.2975C144.558 31.372 138.428 33.6223 130.864 33.6223C123.303 33.6223 117.173 31.372 117.173 24.2975C117.173 17.2207 124.303 11.4844 130.864 11.4844C137.428 11.4844 144.558 17.2207 144.558 24.2975Z" fill="#F8F6E9"/>
<mask id="mask1_194_115" style="mask-type:luminance" maskUnits="userSpaceOnUse" x="113" y="8" width="36" height="34">
<path d="M113.752 8.49402H148.52V42H113.752V8.49402Z" fill="white"/>
</mask>
<g mask="url(#mask1_194_115)">
<path d="M141.577 16.6715C143.664 15.1612 145.717 12.2919 142.545 9.6692C139.121 6.84406 136.236 10.1323 135.51 12.3873C137.814 13.2762 139.957 14.7726 141.577 16.6715ZM140.105 25.4355C141.76 24.1672 141.903 21.5934 140.423 19.6898C138.945 17.7862 136.405 17.2742 134.749 18.5425C133.094 19.8131 132.953 22.3846 134.431 24.2882C135.911 26.1918 138.451 26.7061 140.105 25.4355ZM134.89 20.0435C135.246 20.0435 135.531 20.3298 135.531 20.6812C135.531 21.0349 135.246 21.3211 134.89 21.3211C134.536 21.3211 134.248 21.0349 134.248 20.6812C134.248 20.3298 134.536 20.0435 134.89 20.0435ZM144.507 25.375C143.91 31.6024 138.03 33.6223 130.865 33.6223C123.701 33.6223 117.822 31.6024 117.222 25.375L113.796 33.3756C117.639 38.6047 123.856 42 130.869 42C137.882 42 144.092 38.607 147.937 33.385L144.507 25.375ZM127.319 27.0179C127.319 27.8324 128.907 29.4684 130.865 29.4684C132.824 29.4684 134.412 27.8324 134.412 27.0179C134.412 26.2034 132.824 25.5425 130.865 25.5425C128.907 25.5425 127.319 26.2034 127.319 27.0179ZM120.152 16.6715C121.772 14.7726 123.915 13.2762 126.221 12.3873C125.493 10.1323 122.608 6.84406 119.187 9.6692C116.012 12.2919 118.068 15.1612 120.152 16.6715ZM120.99 19.6898C119.512 21.5934 119.653 24.1672 121.308 25.4355C122.964 26.7061 125.505 26.1918 126.982 24.2882C128.462 22.3846 128.319 19.8131 126.664 18.5425C125.01 17.2742 122.47 17.7862 120.99 19.6898ZM126.544 20.0435C126.898 20.0435 127.186 20.3298 127.186 20.6812C127.186 21.0349 126.898 21.3211 126.544 21.3211C126.188 21.3211 125.903 21.0349 125.903 20.6812C125.903 20.3298 126.188 20.0435 126.544 20.0435Z" fill="#F9DC00"/>
</g>
</svg>
