<svg width="231" height="42" viewBox="0 0 231 42" fill="none" xmlns="http://www.w3.org/2000/svg">
<g clip-path="url(#clip0_931_896)">
<path d="M226.543 15.3491L230.707 8.19L228.397 0.502335H69.6284L68.8852 6.11196L67.4139 0.502335H30.4125L29.1381 5.78429H26.0621L25.3327 8.70597L21.248 0.502335H9.18999L0 31.0841L7.32297 41.4976H19.3656L20.839 35.72H25.7028L28.9644 41.4976H66.1367L67.022 34.7967L69.0793 41.4976H193.27L198.298 30.6956H202.845L207.068 22.1271L211.577 41.4979H224.079L231 31.0675L226.543 15.3491ZM119.237 22.6041L119.253 18.9538H129.934L130.043 22.6041H119.237Z" fill="#4F4F4F"/>
<path d="M8.36556 39.3717L2.2644 30.6957H12.1123L17.6975 39.3718L8.36556 39.3717ZM48.2194 30.6957H38.372L42.5827 39.3718H51.9146L48.2194 30.6957ZM51.502 30.6957L55.0253 39.3718H64.3573L61.3495 30.6957H51.502ZM81.0446 30.6957L83.0211 39.3718H104.796L104.022 30.6957H81.0446ZM130.282 30.6957L129.681 39.3718H107.906L107.305 30.6957H130.282ZM133.565 30.6957H143.412L142.124 39.3718H132.792L133.565 30.6957ZM146.695 30.6957L145.234 39.3718H154.566L156.542 30.6957H146.695ZM159.825 30.6957L157.677 39.3717L167.009 39.3718L169.672 30.6957H159.825ZM172.955 30.6957L170.119 39.3718H179.451L182.802 30.6957H172.955ZM186.085 30.6957L182.562 39.3718H191.894L195.932 30.6957H186.085ZM218.91 30.6957L213.669 39.3718H223L228.757 30.6957H218.91ZM67.9145 30.6957L70.5785 39.3718H79.9106L77.762 30.6957H67.9145ZM25.2422 30.6957H35.09L39.472 39.3718H30.14L25.2422 30.6957Z" fill="#A3A3A3"/>
<path d="M28.0747 18.9537H24.8916L23.4492 24.7298H16.9852L18.5253 18.9537H15.3422L12.1119 30.6956H2.2644L10.6987 2.62819H19.8335L18.3804 7.91015H21.47L20.0196 13.3496H26.291L27.6493 7.91015H30.7389L32.0132 2.62819H41.1484L35.0894 30.6956H25.2422L28.0747 18.9537ZM44.1929 2.62819H53.3276L48.2194 30.6956H38.372L44.1929 2.62819ZM83.7768 2.62819H105.091L104.89 7.91015H92.5315L92.1402 13.3496H104.683L104.469 18.9537H91.7364L91.3207 24.7298H104.249L104.022 30.6956H81.0444L83.7768 2.62819ZM108.136 2.62819H129.451L129.607 7.91015H117.249L117.179 24.7298H130.106L130.283 30.6956H107.305L108.136 2.62819ZM145.85 18.9537H142.667L143.412 30.6956H133.565L132.495 2.62804H153.81L154.853 13.3494H151.718L151.965 16.1304H155.124L156.542 30.695H146.695L145.85 18.9537ZM141.966 7.90971L142.311 13.3491H145.447L145.055 7.90971H141.966ZM181.214 2.62819H202.529L203.758 7.91015H191.4L192.482 13.3496H205.024L206.329 18.9537H193.597L195.932 30.6956H186.085L181.214 2.62819ZM213.027 7.91015H206.848L205.574 2.62819H226.888L228.475 7.91015H222.296L228.757 30.6956H218.91L213.027 7.91015ZM69.0791 21.8197H65.8717L66.6664 16.1306H63.5069L61.3494 30.6952H51.5016L56.3725 2.62819H65.5078L64.7248 7.91015H67.8145L67.0547 13.3496H70.1905L71.5972 2.62819H80.7319L77.762 30.6956H67.9145L69.0791 21.8197ZM178.169 2.62819H156.855L159.825 30.6956H169.672L168.508 21.8197H171.715L172.955 30.6956H182.803L178.169 2.62819ZM170.99 12.8902H172.555L173.299 18.0079H171.182L170.921 16.1306H167.762L168.008 18.0079H165.89L165.248 12.8902H166.814L166.636 11.5186H162.996L162.563 7.91029H166.682L167.096 11.0638H170.212L169.772 7.91029H173.891L174.436 11.5186H170.796L170.99 12.8902Z" fill="#A3A3A3"/>
</g>
<defs>
<clipPath id="clip0_931_896">
<rect width="231" height="41" fill="white" transform="translate(0 0.5)"/>
</clipPath>
</defs>
</svg>
