<svg width="28" height="28" viewBox="0 0 28 28" fill="none" xmlns="http://www.w3.org/2000/svg">
<path d="M14 0C21.7319 0 28 6.26801 28 14C28 21.7319 21.7319 28 14 28C6.26801 28 0 21.7319 0 14C0 6.26801 6.26801 0 14 0ZM19.606 15.2288C19.1225 14.4946 18.7736 13.9644 17.4471 14.1747C14.9404 14.5726 14.6625 15.0114 14.5428 15.7325L14.509 15.952L14.475 16.1836C14.3382 17.1399 14.3434 17.5017 14.7825 17.9631C16.5537 19.8215 17.6148 21.161 17.9362 21.9444C18.0932 22.3278 18.4967 23.4851 18.219 24.6298C19.9321 23.9492 21.4418 22.8665 22.6314 21.4983C22.7857 20.9749 22.8971 20.3232 22.8971 19.5325V19.3861C22.8971 18.0946 22.8971 17.5056 21.9843 16.984C21.5992 16.7651 21.3118 16.6334 21.0815 16.529C20.5674 16.2952 20.2271 16.1416 19.7677 15.4699C19.713 15.3899 19.6595 15.3101 19.606 15.2288ZM14 2.56666C10.7556 2.56666 7.82687 3.91801 5.74588 6.08854C5.99362 6.2606 6.20952 6.50234 6.35781 6.83558C6.64341 7.47641 6.64341 8.13568 6.64341 8.7187C6.64283 9.17869 6.64219 9.61408 6.78989 9.93023C6.9922 10.3619 7.86296 10.5452 8.63167 10.7063C8.90632 10.7641 9.18953 10.8232 9.44716 10.8945C10.1557 11.0913 10.7038 11.7271 11.1431 12.2377C11.3254 12.4503 11.5947 12.7628 11.7296 12.8404C11.8 12.7898 12.026 12.5451 12.1379 12.1429C12.223 11.8366 12.1988 11.5636 12.0735 11.416C11.2907 10.4922 11.3333 8.71248 11.5752 8.05693C11.9563 7.02248 13.1467 7.09881 14.0168 7.15536C14.3413 7.17625 14.6476 7.19632 14.876 7.16766C15.7475 7.05832 16.0154 5.73353 16.205 5.474C16.6139 4.91373 17.865 4.06994 18.6421 3.54836C17.2235 2.91735 15.6527 2.56666 14 2.56666Z" fill="#8C52FF"/>
</svg>
