<svg width="43" height="43" viewBox="0 0 43 43" fill="none" xmlns="http://www.w3.org/2000/svg">
<path fill-rule="evenodd" clip-rule="evenodd" d="M32.2506 10.1667C30.953 8.15158 28.3193 7.53652 26.3681 8.79294L23.9223 10.3679L27.9888 16.6831L27.3094 17.1206L21.4355 7.99868C20.1379 5.98353 17.5042 5.36846 15.553 6.62489L10.2537 10.0373C8.30248 11.2938 7.77267 13.9459 9.07029 15.961L10.4258 18.0661L13.4152 16.1411C15.3664 14.8847 18 15.4998 19.2977 17.5149L23.6353 24.2511C24.7333 25.9562 26.9618 26.4766 28.6128 25.4135L34.5915 21.5636C36.5427 20.3071 37.0725 17.655 35.7749 15.6399L32.2506 10.1667ZM27.3602 12.1247C27.8094 12.8222 28.721 13.0351 29.3964 12.6002C30.0718 12.1653 30.2552 11.2472 29.806 10.5497C29.3569 9.85214 28.4452 9.63923 27.7698 10.0741C27.0944 10.5091 26.911 11.4271 27.3602 12.1247Z" fill="url(#paint0_linear_264_2623)"/>
<path fill-rule="evenodd" clip-rule="evenodd" d="M10.0936 32.1771C11.3913 34.1922 14.0249 34.8073 15.9761 33.5509L18.422 31.9759L14.3554 25.6608L15.0348 25.2233L20.9087 34.3451C22.2063 36.3603 24.84 36.9754 26.7912 35.7189L32.0906 32.3065C34.0417 31.0501 34.5716 28.3979 33.2739 26.3828L31.9184 24.2777L28.929 26.2027C26.9779 27.4591 24.3442 26.8441 23.0466 24.8289L18.7089 18.0928C17.611 16.3876 15.3825 15.8672 13.7315 16.9303L7.75268 20.7803C5.8015 22.0367 5.27169 24.6888 6.56931 26.704L10.0936 32.1771ZM14.984 30.2192C14.5349 29.5216 13.6232 29.3087 12.9478 29.7436C12.2724 30.1785 12.089 31.0966 12.5382 31.7941C12.9874 32.4917 13.899 32.7046 14.5744 32.2697C15.2498 31.8348 15.4332 30.9167 14.984 30.2192Z" fill="url(#paint1_linear_264_2623)"/>
<defs>
<linearGradient id="paint0_linear_264_2623" x1="31.9343" y1="9.67555" x2="12.9109" y2="21.9253" gradientUnits="userSpaceOnUse">
<stop stop-color="#327EBD"/>
<stop offset="1" stop-color="#1565A7"/>
</linearGradient>
<linearGradient id="paint1_linear_264_2623" x1="29.4333" y1="20.4185" x2="10.4099" y2="32.6683" gradientUnits="userSpaceOnUse">
<stop stop-color="#FFDA4B"/>
<stop offset="1" stop-color="#F9C600"/>
</linearGradient>
</defs>
</svg>
