<svg width="52" height="52" viewBox="0 0 52 52" fill="none" xmlns="http://www.w3.org/2000/svg">
<path fill-rule="evenodd" clip-rule="evenodd" d="M27.1881 4.35842C24.0048 3.50546 20.7547 5.31265 19.9288 8.39489L18.8935 12.2586L28.8695 14.9316L28.5819 16.0049L14.1722 12.1438C10.9889 11.2909 7.7388 13.0981 6.91291 16.1803L4.66982 24.5517C3.84393 27.6339 5.755 30.824 8.9383 31.677L12.2636 32.568L13.529 27.8457C14.3548 24.7634 17.6049 22.9563 20.7882 23.8092L31.4292 26.6605C34.1228 27.3822 36.8729 25.853 37.5717 23.245L40.1024 13.8004C40.9283 10.7181 39.0172 7.52802 35.8339 6.67506L27.1881 4.35842ZM24.0175 10.8708C25.1194 11.1661 26.2444 10.5405 26.5303 9.47357C26.8162 8.40664 26.1547 7.30237 25.0527 7.00711C23.9508 6.71186 22.8258 7.33742 22.5399 8.40435C22.254 9.47129 22.9156 10.5756 24.0175 10.8708Z" fill="url(#paint0_linear_194_421)"/>
<path fill-rule="evenodd" clip-rule="evenodd" d="M24.9635 47.2441C28.1468 48.0971 31.3969 46.2899 32.2228 43.2076L33.2581 39.3439L23.2821 36.6709L23.5697 35.5976L37.9794 39.4587C41.1627 40.3117 44.4128 38.5045 45.2387 35.4222L47.4818 27.0509C48.3077 23.9686 46.3966 20.7785 43.2133 19.9255L39.888 19.0345L38.6226 23.7568C37.7968 26.8391 34.5467 28.6463 31.3634 27.7933L20.7224 24.9421C18.0288 24.2203 15.2787 25.7495 14.5799 28.3575L12.0492 37.8021C11.2233 40.8844 13.1344 44.0745 16.3177 44.9275L24.9635 47.2441ZM28.1341 40.7317C27.0322 40.4365 25.9072 41.062 25.6213 42.129C25.3354 43.1959 25.9969 44.3002 27.0989 44.5954C28.2008 44.8907 29.3258 44.2651 29.6117 43.1982C29.8976 42.1312 29.236 41.027 28.1341 40.7317Z" fill="url(#paint1_linear_194_421)"/>
<defs>
<linearGradient id="paint0_linear_194_421" x1="26.4122" y1="4.15052" x2="18.36" y2="34.2015" gradientUnits="userSpaceOnUse">
<stop stop-color="#327EBD"/>
<stop offset="1" stop-color="#1565A7"/>
</linearGradient>
<linearGradient id="paint1_linear_194_421" x1="33.7916" y1="17.401" x2="25.7394" y2="47.452" gradientUnits="userSpaceOnUse">
<stop stop-color="#FFDA4B"/>
<stop offset="1" stop-color="#F9C600"/>
</linearGradient>
</defs>
</svg>
