<svg width="193" height="54" viewBox="0 0 193 54" fill="none" xmlns="http://www.w3.org/2000/svg">
<g clip-path="url(#clip0_931_890)">
<path d="M72.7704 22.9918C72.7704 17.2887 71.0827 14.3608 67.7068 14.2007C66.3634 14.1396 65.0525 14.3456 63.7765 14.823C62.7583 15.1739 62.0729 15.5217 61.7124 15.873V29.4855C63.8716 30.7913 65.789 31.3983 67.4613 31.3027C70.9989 31.0768 72.7704 28.3094 72.7704 22.9918ZM76.9345 23.2283C76.9345 26.1257 76.2292 28.5307 74.8106 30.4431C73.2297 32.6077 71.0388 33.7223 68.2377 33.7834C66.126 33.848 63.9505 33.2108 61.712 31.8745V44.2468L58.0906 43.0022V15.5405C58.6849 14.8382 59.4499 14.2351 60.3767 13.7233C62.5322 12.5131 65.1508 11.8912 68.2336 11.8606L68.2848 11.91C71.1022 11.8759 73.2728 12.9905 74.7984 15.2503C76.2211 17.3232 76.9345 19.9801 76.9345 23.2283ZM99.0664 31.3482C99.0664 35.2344 98.6624 37.9253 97.8543 39.4218C97.0421 40.9179 95.4966 42.1127 93.2146 43.0025C91.3643 43.7048 89.3632 44.0866 87.2161 44.1516L86.6174 41.953C88.8006 41.6671 90.3379 41.3804 91.2294 41.0941C92.9846 40.5215 94.189 39.6439 94.8507 38.4678C95.3816 37.5098 95.643 35.6813 95.643 32.975V32.0664C93.1667 33.1509 90.5717 33.689 87.858 33.689C86.0747 33.689 84.502 33.1509 83.1468 32.0664C81.6253 30.8868 80.8648 29.3908 80.8648 27.5775V13.0555L84.4862 11.8606V26.477C84.4862 28.038 85.0089 29.2408 86.0548 30.0843C87.1007 30.9279 88.4559 31.3329 90.116 31.302C91.7761 31.2675 93.5549 30.6491 95.4446 29.4389V12.387H99.066L99.0664 31.3482ZM113.203 33.5926C112.806 33.6249 112.408 33.6414 112.01 33.642C109.962 33.642 108.365 33.1728 107.224 32.2297C106.087 31.2871 105.517 29.9857 105.517 28.3247V14.5821H103.036V12.3874H105.517V6.55823L109.134 5.31751V12.3874H113.203V14.5821H109.134V28.2292C109.134 29.5388 109.498 30.4662 110.227 31.0086C110.853 31.4551 111.848 31.7108 113.202 31.7758V33.5926H113.203ZM135.129 33.3064H131.508V19.8387C131.508 18.4683 131.175 17.2887 130.513 16.3042C129.749 15.1892 128.687 14.6319 127.324 14.6319C125.664 14.6319 123.588 15.4754 121.096 17.1626V33.3064H117.475V1.11484L121.096 0.0155106V14.6777C123.409 13.0551 125.937 12.2421 128.683 12.2421C130.601 12.2421 132.154 12.8644 133.343 14.1051C134.535 15.3454 135.129 16.8916 135.129 18.7394L135.129 33.3064ZM154.377 22.4423C154.377 20.2511 153.945 18.4417 153.085 17.0103C152.062 15.2659 150.474 14.3456 148.326 14.2504C144.356 14.4717 142.375 17.2124 142.375 22.4654C142.375 24.874 142.787 26.8858 143.619 28.5006C144.681 30.5582 146.274 31.5737 148.398 31.5393C152.384 31.5083 154.377 28.4775 154.377 22.4423ZM158.343 22.465C158.343 25.584 157.515 28.1798 155.862 30.2524C154.043 32.5736 151.532 33.7376 148.326 33.7376C145.149 33.7376 142.673 32.5732 140.886 30.2524C139.265 28.1798 138.457 25.584 138.457 22.465C138.457 19.5336 139.332 17.0675 141.084 15.0595C142.934 12.9294 145.366 11.8606 148.374 11.8606C151.381 11.8606 153.829 12.9294 155.716 15.0595C157.467 17.0675 158.343 19.5336 158.343 22.465ZM179.104 33.3064H175.482V19.0754C175.482 17.5143 174.995 16.2963 174.02 15.4183C173.046 14.5441 171.746 14.1204 170.125 14.1544C168.406 14.185 166.77 14.727 165.217 15.777V33.3064H161.595V15.3458C163.679 13.8842 165.597 12.9294 167.348 12.4829C169 12.067 170.458 11.8606 171.714 11.8606C172.574 11.8606 173.383 11.9405 174.143 12.1011C175.565 12.4179 176.723 13.0058 177.614 13.8686C178.608 14.823 179.104 15.9677 179.104 17.3079V33.3064Z" fill="#707070"/>
<path d="M22.3239 1.24369C20.4606 1.25192 18.6814 1.40505 17.116 1.67214C12.504 2.45738 11.6666 4.1003 11.6666 7.1308V11.133H22.5653V12.4669H7.57617C4.40883 12.4669 1.63497 14.3013 0.767526 17.7908C-0.233243 21.7906 -0.27755 24.2865 0.767526 28.463C1.54229 31.5718 3.39261 33.7869 6.55995 33.7869H10.3073V28.9893C10.3073 25.5233 13.4198 22.4662 17.116 22.4662H28.0021C31.0324 22.4662 33.4515 20.0623 33.4515 17.1301V7.13041C33.4515 4.28477 30.9597 2.14681 28.0021 1.67175C26.1294 1.37176 24.1872 1.23508 22.3239 1.24369ZM16.4298 4.46218C17.5558 4.46218 18.4749 5.36256 18.4749 6.46933C18.4749 7.57218 17.5554 8.46433 16.4298 8.46433C15.3002 8.46433 14.3848 7.57257 14.3848 6.46933C14.3848 5.36256 15.3002 4.46218 16.4298 4.46218Z" fill="#5F5F5F"/>
<path d="M34.8106 12.4665V17.1293C34.8106 20.7446 31.6294 23.7872 28.002 23.7872H17.1159C14.1339 23.7872 11.6665 26.2459 11.6665 29.1233V39.1222C11.6665 41.9682 14.2347 43.6421 17.1159 44.4583C20.5657 45.4358 23.8741 45.6124 28.002 44.4583C30.7457 43.693 33.4513 42.1523 33.4513 39.1222V35.1204H22.5652V33.7865H38.9007C42.0684 33.7865 43.2484 31.6576 44.35 28.4626C45.4882 25.1736 45.4398 22.0099 44.35 17.7904C43.5671 14.7525 42.0721 12.4665 38.9007 12.4665H34.8106ZM28.6877 37.7883C29.8173 37.7883 30.7327 38.68 30.7327 39.7833C30.7327 40.8901 29.8173 41.7904 28.6877 41.7904C27.5617 41.7904 26.6427 40.8901 26.6427 39.7833C26.6427 38.6804 27.5621 37.7883 28.6877 37.7883Z" fill="#707070"/>
<path d="M186.156 9.27659H186.79V5.4401H188.294V4.98267H184.651V5.4401H186.155L186.156 9.27659ZM188.857 9.27659H189.4V5.7726L190.577 9.2762H191.181L192.408 5.78435V9.27659H193V4.98306H192.217L190.876 8.66172L189.733 4.98306H188.857V9.27659Z" fill="#707070"/>
<path opacity="0.444" d="M37.2943 51.2559C37.2943 52.763 30.7552 53.9845 22.6885 53.9845C14.6221 53.9845 8.08301 52.763 8.08301 51.2559C8.08301 49.7489 14.6221 48.527 22.6885 48.527C30.7552 48.527 37.2943 49.7489 37.2943 51.2559Z" fill="url(#paint0_radial_931_890)"/>
</g>
<defs>
<radialGradient id="paint0_radial_931_890" cx="0" cy="0" r="1" gradientUnits="userSpaceOnUse" gradientTransform="translate(22.6838 51.1932) rotate(-90) scale(2.72815 12.4488)">
<stop stop-color="#B8B8B8" stop-opacity="0.498"/>
<stop offset="1" stop-color="#7F7F7F" stop-opacity="0"/>
</radialGradient>
<clipPath id="clip0_931_890">
<rect width="193" height="54" fill="white"/>
</clipPath>
</defs>
</svg>
