<svg width="225" height="46" viewBox="0 0 225 46" fill="none" xmlns="http://www.w3.org/2000/svg">
<g clip-path="url(#clip0_931_886)">
<path fill-rule="evenodd" clip-rule="evenodd" d="M45.1179 0L76.8462 9.72104L68.3445 46L36.6162 36.279L45.1179 0ZM53.2725 16.5404L50.7672 27.2316L60.1174 30.0962L62.6227 19.405L53.2725 16.5404ZM167.369 1.30806C171.198 1.35166 174.617 2.33706 177.627 4.26426C180.636 6.18929 183.013 8.79668 184.758 12.0843C186.502 15.3718 187.395 19.0802 187.431 23.2071V23.327C187.393 27.4561 186.493 31.1732 184.731 34.4804C182.968 37.7876 180.575 40.4146 177.549 42.3592C174.523 44.3061 171.093 45.3002 167.263 45.346C163.434 45.3024 160.015 44.317 157.005 42.3898C153.996 40.4647 151.619 37.8573 149.874 34.5698C148.13 31.2822 147.237 27.5738 147.201 23.4469V23.327C147.239 19.1979 148.139 15.4809 149.901 12.1736C151.663 8.86644 154.057 6.23943 157.083 4.29479C160.109 2.34796 163.537 1.35384 167.369 1.30806ZM167.263 13.7891C164.893 13.8741 163.034 14.8246 161.686 16.6428C160.336 18.461 159.649 20.6477 159.623 23.2071V23.327C159.649 25.917 160.347 28.1319 161.718 29.9741C163.087 31.8163 164.971 32.7799 167.369 32.8627C169.739 32.7799 171.598 31.8294 172.946 30.0112C174.296 28.193 174.983 26.0063 175.009 23.4469V23.327C174.983 20.7371 174.285 18.5221 172.914 16.6799C171.545 14.8377 169.661 13.8741 167.263 13.7891ZM0.00878906 1.52607H18.3392C21.6472 1.54351 24.4023 1.98389 26.6025 2.85156C28.8028 3.71924 30.5512 4.91393 31.8477 6.43128C32.9745 7.70663 33.8268 9.17384 34.4045 10.8329C34.9841 12.4919 35.2739 14.4191 35.2758 16.6167V16.7388C35.2529 19.8694 34.5894 22.5269 33.2872 24.7114C31.985 26.8958 30.1832 28.6159 27.8819 29.8717L36.6162 44.4739H22.3088L15.2295 32.2H12.5468V44.4739H0.00878906V1.52607ZM12.5468 13.5449V21.9601H17.9636C19.4793 21.9514 20.6596 21.5851 21.5042 20.8635C22.3488 20.1397 22.7778 19.1129 22.7912 17.783V17.6609C22.774 16.2809 22.3412 15.2498 21.4908 14.5674C20.6424 13.885 19.4851 13.5449 18.017 13.5449H12.5468ZM118.22 1.96209H130.262V31.3977H147.201V43.1659H118.22V1.96209Z" fill="#707070"/>
<path fill-rule="evenodd" clip-rule="evenodd" d="M184.169 1.96208H198.844L204.415 11.7921L210.042 1.96208H224.441L211.918 22.0342L224.992 43.1659H210.318L204.194 32.4529L198.017 43.1659H183.618L196.691 22.2108L184.169 1.96208ZM79.5154 2.18009H100.338C102.895 2.18445 105.026 2.50929 106.735 3.15895C108.443 3.80862 109.831 4.75696 110.902 6.00398C111.577 6.76047 112.125 7.68919 112.542 8.78796C112.958 9.88673 113.173 11.1643 113.185 12.6206V12.7426C113.158 15.2563 112.55 17.3099 111.36 18.9036C110.172 20.4972 108.569 21.6854 106.55 22.4659C108.967 23.2202 110.874 24.4105 112.269 26.0325C113.665 27.6545 114.378 29.9065 114.407 32.793V32.9151C114.399 36.3792 113.194 39.1937 110.79 41.3542C108.386 43.5125 104.832 44.6265 100.124 44.6919H79.5154V2.18009ZM91.6187 12.9236V18.884H97.0412C98.3682 18.8796 99.3558 18.6289 100.004 18.1318C100.654 17.6326 100.976 16.911 100.975 15.9648V15.8427C100.975 14.8966 100.643 14.175 99.9774 13.6757C99.3139 13.1787 98.3167 12.928 96.9878 12.9236H91.6187ZM91.6187 27.624V33.9484H97.8381C99.1938 33.9332 100.216 33.6432 100.9 33.0808C101.587 32.5183 101.93 31.7749 101.932 30.8462V30.7241C101.932 29.7975 101.598 29.0519 100.927 28.4895C100.258 27.927 99.2452 27.6392 97.8915 27.624H91.6187Z" fill="#707070"/>
</g>
<defs>
<clipPath id="clip0_931_886">
<rect width="225" height="46" fill="white"/>
</clipPath>
</defs>
</svg>
