<svg width="150" height="56" viewBox="0 0 150 56" fill="none" xmlns="http://www.w3.org/2000/svg">
<g clip-path="url(#clip0_931_877)">
<path d="M136.611 54.6397C134.796 54.8664 133.661 54.8664 133.207 55.0931C132.299 55.5466 130.257 56 127.761 56C124.584 56 121.634 54.8664 119.138 53.0526H117.322C116.641 53.0526 116.188 53.0526 115.507 52.8259C113.01 53.7328 110.741 53.7328 109.38 53.7328H108.926C105.749 53.9595 102.572 53.2794 99.8486 51.919C98.487 52.3725 97.3524 52.5992 95.9908 52.5992L87.5945 52.8259C83.7367 52.8259 80.3327 51.4656 77.6096 48.9717C76.4749 48.9717 75.3403 48.7449 74.4326 48.5182C72.0911 51.1172 69.0135 52.9429 65.6087 53.7528C62.204 54.5627 58.6331 54.3185 55.3706 53.0526C54.9167 52.8259 54.2359 52.5992 53.7821 52.3725L48.5627 53.0526H46.9742C46.2934 53.2794 45.8395 53.7328 45.3857 53.9595C41.9818 55.5466 38.8047 55.5466 37.4432 55.5466H36.3085C32.4507 55.5466 28.5929 54.413 25.6429 52.3725C24.7352 52.5992 23.6005 52.8259 22.6928 52.8259C20.6504 54.1862 18.1542 55.0931 15.4311 55.3198H14.5234C7.0347 55.3198 0.907621 49.6518 0.226834 42.17V41.9433C0.226834 40.8097 -9.50545e-05 38.3158 0.226834 35.5951C0.226834 34.2348 0.453763 32.1943 0.453763 31.7409C0.453763 29.9271 0.90762 28.1134 1.58841 26.2996C1.13455 24.4858 1.36148 22.6721 1.58841 20.8583V20.1781C1.81534 18.5911 2.26919 15.417 3.8577 12.2429C6.80777 6.80162 12.2541 3.40081 18.3811 3.40081C20.4235 2.26721 22.4659 1.81377 24.7352 1.81377H25.4159C29.9545 2.04049 34.0392 4.30769 36.5355 7.93522C38.5778 6.12146 41.074 4.98785 43.7972 4.53441C49.2435 3.85425 53.7821 3.62753 57.6398 4.30769C59.6822 2.49393 62.4054 1.1336 65.1285 0.906883L71.0286 0H72.8441C76.248 0 79.6519 1.36032 82.3751 3.62753H82.8289L91.4522 3.40081C95.0831 3.40081 98.2601 3.17409 98.9409 3.17409H100.076C103.253 3.17409 106.656 4.30769 109.153 6.34818C111.649 4.53441 114.599 3.62753 117.776 3.62753H120.726C122.995 2.26721 125.492 1.36032 128.215 1.36032L135.476 1.1336H135.703C143.419 1.1336 149.773 7.48178 150 15.1903C150 18.8178 148.865 21.9919 146.596 24.7125V31.2874C148.638 33.5547 149.773 36.502 150 39.6761C150.454 47.3846 144.554 53.9595 136.611 54.6397Z" fill="#707070"/>
<path d="M136.157 46.4777C133.207 46.7045 131.392 46.9312 130.938 47.1579L130.711 47.3846C130.03 47.6113 129.122 48.0648 127.988 48.0648C126.626 48.0648 125.038 47.6113 123.903 46.4777C123.449 46.0243 122.995 45.5709 122.768 45.1174H117.549C116.641 45.1174 115.734 44.8907 115.053 44.4373C114.826 44.664 114.372 44.664 114.145 44.8907C112.33 45.7976 110.741 45.7976 109.607 45.7976H108.472C105.068 45.7976 102.345 44.664 100.529 42.6235C99.3948 43.7571 97.8063 44.4373 96.2178 44.4373L87.8214 44.664C84.8713 44.664 82.1482 42.3968 81.6943 39.6761C80.5597 40.3563 79.425 40.8097 78.0634 40.8097C76.7019 40.8097 75.3403 40.3563 74.2057 39.6761C73.9787 39.4494 73.7518 39.2227 73.5249 39.2227C72.8441 39.6761 71.9364 39.6761 71.0286 39.6761H70.3479C69.4401 42.3968 67.8516 44.2105 65.3554 45.3441C64.2208 45.7976 62.8592 46.251 61.7246 46.251C60.5899 46.251 59.2283 46.0243 58.0937 45.5709C56.9591 45.1174 56.0513 44.4372 55.3705 43.7571C54.9167 43.9838 54.4628 43.9838 54.009 44.2105L47.428 45.1174H46.5203C45.8395 45.1174 45.3857 45.1174 44.7049 44.8907C43.7972 45.7976 42.6625 46.251 41.7548 46.7045C39.9394 47.6113 38.3509 47.6113 37.2162 47.6113H36.0816C31.9969 47.6113 28.8199 45.7976 27.0044 43.3036C25.189 44.4373 22.9197 45.1174 20.8774 45.1174H19.5158C19.5158 45.3441 19.2889 45.3441 19.2889 45.5709C18.1542 46.7045 16.5657 47.6113 14.9772 47.6113H14.5233C11.3463 47.6113 8.6232 45.1174 8.39627 41.7166V41.4899C8.39627 40.3563 8.16934 38.3158 8.39627 36.0486C8.39627 34.4615 8.6232 31.9676 8.6232 31.9676C8.6232 30.3806 9.30398 29.0202 10.2117 27.8866C9.30398 26.0729 9.07705 24.0324 9.53091 21.7652V21.3117C9.75784 19.9514 9.98477 17.9109 10.8925 15.8704C12.481 12.9231 15.4311 11.336 18.835 11.336H20.4235C21.5581 10.4292 22.9197 9.74899 24.5082 9.74899C27.9122 9.74899 30.6353 12.6964 30.6353 16.0972V18.5911C32.4504 17.9293 34.4112 17.7726 36.3085 18.1377C37.2162 17.0041 38.5778 16.3239 39.9394 16.0972C40.1663 15.6437 40.3932 15.417 40.6202 14.9636C41.5279 13.6032 43.1164 12.6964 44.7049 12.4696C46.0665 12.2429 48.7896 12.0162 51.9666 12.0162C55.5975 12.0162 58.5476 12.4696 60.8168 13.6032C61.4976 11.1093 63.3131 9.29555 66.0362 8.84211L71.9364 7.93523H72.8441C74.6595 7.93523 76.248 8.61539 77.3827 9.97571C77.8365 10.4292 78.5173 11.336 78.7442 12.0162L78.9712 12.6964C80.1058 12.0162 81.2404 11.5628 82.602 11.5628L91.4522 11.336C95.7639 11.336 99.6217 11.1093 99.6217 10.8826H100.076C101.664 10.8826 103.479 11.5628 104.614 12.6964C105.522 13.6032 106.203 14.7368 106.43 16.0972H106.883C107.564 16.0972 108.018 16.0972 108.699 16.3239C109.607 15.1903 110.968 14.5101 112.33 14.2834C113.464 12.6964 115.507 11.336 117.776 11.336H123.676C124.811 9.97571 126.399 9.06883 128.442 9.06883H135.703C139.107 9.06883 141.83 11.7895 142.057 15.1903C142.057 17.6842 140.696 19.9514 138.653 20.8583V34.6883C140.469 35.5951 141.83 37.6356 142.057 39.9028C142.284 43.3036 139.561 46.251 136.157 46.4777Z" fill="#FEFEFE"/>
<path d="M73.298 19.2713L71.7095 27.4332L76.248 26.753L73.298 19.2713Z" fill="#FEFEFE"/>
<path d="M19.0619 27.2065C17.4734 26.9798 16.5657 25.8462 17.0196 22.6721V22.2186C17.4734 19.498 17.7003 18.8178 19.0619 18.8178C19.5158 18.8178 19.9696 19.0445 20.4235 19.498C20.8774 19.9514 21.7851 20.6316 22.2389 21.9919C22.6928 22.8988 22.6928 23.5789 22.9197 24.2591V25.166C22.9197 25.6194 23.3736 26.0729 24.0544 26.2996C24.7351 26.5263 25.4159 25.8462 25.6429 25.166L26.0967 16.3239C26.0967 15.6437 25.4159 14.9636 24.7351 14.9636C24.0544 14.9636 23.3736 15.6437 23.3736 16.3239V18.8178C22.2389 17.6842 20.8774 16.5506 19.2889 16.5506C14.9772 15.8704 14.5233 19.7247 14.2964 21.9919V22.4453C13.8426 26.753 15.2041 29.4737 18.6081 30.1538C22.2389 30.834 24.7351 31.5142 24.7351 33.7814C24.7351 34.6883 24.2813 35.5951 23.3736 36.2753C22.4659 37.1822 21.1043 37.4089 19.7427 37.1822C19.2889 37.1822 19.0619 36.9555 18.6081 36.9555C18.1542 36.7287 16.7926 36.0486 16.3388 35.1417C16.1118 34.2348 15.8849 33.1012 15.8849 32.4211V31.9676C15.8849 31.2874 15.2041 30.6073 14.5233 30.6073C13.8426 30.6073 13.1618 31.2874 13.1618 31.9676C13.1618 31.9676 13.1618 34.6883 12.9348 36.2753C12.7079 38.996 12.9348 41.0364 12.9348 41.2632C12.9348 41.9433 13.6156 42.6235 14.2964 42.6235C14.9772 42.6235 15.658 41.9433 15.658 41.2632V38.7692C16.5657 39.4494 17.9273 40.1296 19.5158 40.3563C21.5581 40.8097 23.6005 40.1296 25.189 38.7692C26.5506 37.6356 27.4583 35.8219 27.4583 34.2348C27.4583 28.5668 21.7851 27.6599 19.0619 27.2065ZM57.186 23.3522C56.959 23.5789 56.7321 23.8057 56.2783 24.0324C56.0513 24.2591 55.3705 24.4858 55.1436 24.4858L54.4628 24.7125C53.5551 25.166 52.1935 25.3927 50.832 25.6194V19.2713C54.4628 19.2713 57.6398 19.498 58.3206 20.6316V21.085C58.3206 21.5385 57.8668 22.4453 57.186 23.3522ZM65.1285 35.5951C64.4477 35.3684 63.54 35.8219 63.3131 36.502C62.8592 38.0891 62.4053 38.0891 62.1784 38.3158C61.9515 38.5425 61.4976 38.3158 60.8168 38.0891C60.8168 38.0891 60.5899 37.6356 60.363 37.4089C60.1361 36.9555 59.9091 35.1417 59.9091 34.0081C59.9091 29.9271 59.0014 27.6599 57.8668 26.5263C58.5476 26.0729 59.2283 25.3927 59.2283 25.3927C60.8168 23.1255 61.2707 21.3117 60.363 19.7247C58.0937 15.8704 48.3358 17.004 45.1587 17.4575C44.478 17.4575 43.7972 18.3644 44.0241 19.0445C44.0241 19.7247 44.9318 20.4049 45.6126 20.1781C46.2934 20.1781 46.9742 19.9514 47.655 19.9514V26.2996H46.9742C46.2934 26.2996 45.6126 26.9798 45.6126 27.6599C45.6126 28.3401 46.2934 29.0202 46.9742 29.0202H47.655V36.9555L45.8395 37.1822C45.1587 37.1822 44.478 38.0891 44.7049 38.7692C44.7049 39.4494 45.6126 40.1296 46.2934 39.9028L52.8743 38.996C53.5551 38.996 54.2359 38.0891 54.009 37.4089C54.009 36.7287 53.1013 36.0486 52.4205 36.2753L50.3781 36.502V28.5668C51.7397 28.3401 52.8743 28.1134 54.009 27.6599H54.4628C54.9167 27.6599 55.3705 27.8866 55.5975 28.3401C56.0513 29.0202 56.5052 30.3806 56.7321 33.7814C56.7321 34.4615 56.959 37.1822 57.4129 38.3158C57.6398 38.7692 58.3206 39.9028 59.4553 40.3563C60.363 40.583 61.4976 41.0364 62.8592 40.3563C63.9938 39.6761 64.9016 38.9959 65.3554 36.9555C66.2631 36.502 65.8093 35.8219 65.1285 35.5951ZM114.599 31.2874C113.918 31.2874 113.237 31.9676 113.237 32.6478V34.4615C113.237 35.1417 113.01 36.0486 112.784 36.2753C112.557 36.7287 112.33 36.9555 111.876 37.4089C111.649 37.6356 111.195 37.8623 110.741 38.0891C110.287 38.3158 110.06 38.3158 109.153 38.3158H108.245C104.614 38.5425 104.16 35.5951 104.16 34.915V29.0202C104.387 26.753 104.841 25.166 105.749 24.4858C106.43 24.0324 107.337 24.2591 108.926 24.7125C110.741 25.3927 111.876 27.4332 112.103 27.4332C112.33 27.8866 113.01 28.1134 113.691 28.1134C114.372 27.8866 114.599 27.4332 114.599 26.753V20.6316C114.599 19.9514 113.918 19.2713 113.237 19.2713C112.557 19.2713 111.876 19.9514 111.876 20.6316V23.1255C111.422 22.6721 110.741 22.4453 110.06 21.9919C109.38 21.5385 106.656 20.4049 104.614 21.7652C103.026 22.8988 101.891 24.9393 101.664 28.3401V34.6883C101.891 36.7287 103.479 40.8097 108.472 40.8097H109.153C110.06 40.8097 110.968 40.8097 111.876 40.3563C112.557 40.1296 113.237 39.6761 113.918 38.996C114.372 38.5425 114.599 38.0891 115.053 37.4089C115.507 36.502 115.734 34.915 115.961 34.4615V32.1943C115.961 31.7409 115.28 31.2874 114.599 31.2874ZM137.065 40.3563C137.065 39.6761 136.384 38.996 135.703 38.996C135.25 38.996 134.569 38.9959 133.888 39.2227C133.888 36.9555 133.888 32.1943 133.661 16.7773H135.703C136.384 16.7773 137.065 16.0972 137.065 15.417C137.065 14.7368 136.384 14.0567 135.703 14.0567L128.442 14.2834C127.761 14.2834 127.08 14.9636 127.08 15.6437C127.08 16.3239 127.761 17.004 128.442 17.004H130.711V26.5263L122.542 27.8866V19.2713H124.811C125.492 19.2713 126.172 18.5911 126.172 17.9109C126.172 17.2308 125.492 16.5506 124.811 16.5506H117.549C116.868 16.5506 116.187 17.2308 116.187 17.9109C116.187 18.5911 116.868 19.2713 117.549 19.2713H119.818V37.6356H117.549C116.868 37.6356 116.187 38.3158 116.187 38.996C116.187 39.6761 116.868 40.3563 117.549 40.3563L125.038 40.583C125.718 40.583 126.399 39.9028 126.399 39.2227C126.399 38.5425 125.718 37.8623 125.038 37.8623H122.768V30.834L130.938 29.4737V39.9028C129.122 40.3563 127.761 40.3563 127.08 41.2632C126.626 41.7166 126.626 42.6235 127.307 43.0769C127.761 43.5304 128.442 43.3036 129.349 43.0769C130.03 42.6235 132.753 42.3968 135.93 42.17C136.611 41.7166 137.065 41.0364 137.065 40.3563Z" fill="#707070"/>
<path d="M71.7095 27.4332L73.298 19.2713L76.2481 26.753L71.7095 27.4332ZM83.7367 29.7004C83.2829 29.9271 82.6021 30.1538 81.2405 30.834L79.4251 26.5263L74.2057 14.0567C74.2057 13.83 73.9788 13.3765 73.7518 13.3765C73.5249 13.1498 73.0711 12.9231 72.6172 12.9231L66.717 13.6032C66.0363 13.6032 65.3555 14.2834 65.5824 15.1903C65.5824 15.8704 66.2632 16.5506 67.1709 16.3239C67.1709 16.3239 69.4402 16.0972 71.2556 15.8704C70.8018 18.3644 68.7594 28.5668 68.0786 31.7409L63.9939 31.5142C63.3131 31.5142 62.6323 31.9676 62.6323 32.8745C62.6323 33.5547 63.0862 34.2348 63.9939 34.2348L70.8018 34.4615C71.4826 34.4615 72.1633 34.0081 72.1633 33.1012C72.1633 32.421 71.7095 31.7409 70.8018 31.7409L71.0287 29.7004L77.3827 28.5668L78.7443 31.9676C77.6096 32.6478 77.1558 32.8745 76.475 33.5547C76.0211 34.2348 76.2481 34.915 76.7019 35.3684C77.3827 35.8219 78.2904 35.5951 78.7443 35.1417C79.4251 34.2348 81.9213 33.1012 84.4175 32.1943C85.0983 31.9676 85.5521 31.0607 85.3252 30.3806C85.0983 29.9271 84.4175 29.4737 83.7367 29.7004Z" fill="#707070"/>
<path d="M100.076 15.8704L91.4523 16.3239L82.6021 16.5506C82.1482 16.5506 81.9213 16.7773 81.4675 17.004C81.2405 17.2308 81.0136 17.6842 81.2405 18.1377L82.3752 24.9393C82.3752 25.6194 83.2829 26.2996 83.9637 26.0729C84.6445 26.0729 85.0983 25.3927 85.0983 24.7125C85.0983 24.7125 84.6445 21.085 84.1906 19.2713H90.0908V37.1822H87.1407C86.4599 37.1822 85.7791 37.8623 85.7791 38.5425C85.7791 39.2227 86.4599 39.9028 87.1407 39.9028L95.537 39.6761C96.2178 39.6761 96.8986 38.996 96.8986 38.3158C96.8986 37.6356 96.2178 36.9555 95.537 36.9555H92.8139V19.0445C95.0832 19.0445 97.1255 18.8178 98.4871 18.8178V21.5385C98.4871 22.8988 98.7141 23.3522 98.7141 23.5789C99.1679 24.2591 99.8487 24.4858 100.529 24.0324C100.983 23.8057 101.21 23.1255 101.21 22.6721C101.21 22.6721 101.21 19.498 101.437 17.6842C101.437 17.2308 101.437 17.004 100.983 16.5506C100.983 16.0972 100.529 15.8704 100.076 15.8704ZM42.2088 32.6478C41.528 32.6478 40.8472 33.3279 40.8472 34.0081V36.0486C40.8472 36.502 40.6202 37.4089 40.3933 37.8623C40.1664 38.3158 39.9395 38.5425 39.4856 38.996C39.2587 39.2227 38.8048 39.4494 38.351 39.6761C37.8971 39.9028 37.6702 39.9028 36.7625 39.9028H35.8547C32.2239 39.9028 31.77 37.1822 31.77 36.502V30.6073C31.997 28.3401 32.4508 26.753 33.3585 26.0729C34.0393 25.6194 34.947 25.8462 36.5355 26.2996C38.351 26.9798 39.7125 29.0202 39.7125 29.0202C39.9395 29.4737 40.6203 29.7004 41.301 29.7004C41.9818 29.4737 42.2088 29.0202 42.2088 28.3401V22.2186C42.2088 21.5385 41.528 20.8583 40.8472 20.8583C40.1664 20.8583 39.4856 21.5385 39.4856 22.2186V24.7125C39.0317 24.2591 38.351 23.8057 37.6702 23.5789C36.7625 23.1255 34.2662 22.2186 31.997 23.3522C30.4084 24.4858 29.2738 26.5263 29.0469 29.9271V36.2753C29.2738 38.3158 30.8623 42.3968 36.0817 42.3968H36.7625C37.6702 42.3968 38.5779 42.3968 39.4856 41.9433C40.1664 41.7166 40.8472 41.2632 41.528 40.583C41.9818 40.1296 42.2087 39.6761 42.6626 38.996C43.1165 38.0891 43.3434 36.502 43.5703 36.0486V33.7814C43.5703 33.3279 42.8895 32.6478 42.2088 32.6478Z" fill="#707070"/>
</g>
<defs>
<clipPath id="clip0_931_877">
<rect width="150" height="56" fill="white"/>
</clipPath>
</defs>
</svg>
