<svg width="212" height="322" viewBox="0 0 212 322" fill="none" xmlns="http://www.w3.org/2000/svg">
<path opacity="0.32" d="M78.6986 1.99535C88.5654 -2.42404 100.179 0.687903 106.515 9.44862L118.311 25.7608C122.121 31.0295 127.997 34.4225 134.465 35.0877L154.49 37.1472C165.245 38.2534 173.747 46.7553 174.853 57.51L176.912 77.5347C177.578 84.0025 180.97 89.8794 186.239 93.6894L202.551 105.485C211.312 111.821 214.424 123.435 210.005 133.301L201.776 151.673C199.118 157.607 199.118 164.393 201.776 170.327L210.005 188.699C214.424 198.565 211.312 210.179 202.551 216.515L186.239 228.311C180.971 232.121 177.578 237.997 176.912 244.465L174.853 264.49C173.747 275.245 165.245 283.747 154.49 284.853L134.465 286.912C127.997 287.578 122.121 290.97 118.311 296.239L106.515 312.551C100.179 321.312 88.5654 324.424 78.6986 320.005L60.3269 311.776C54.393 309.118 47.607 309.118 41.6731 311.776L23.3014 320.005C13.4346 324.424 1.82061 321.312 -4.51463 312.551L-16.3106 296.239C-20.1206 290.97 -25.9975 287.578 -32.4653 286.912L-52.49 284.853C-63.2447 283.747 -71.7466 275.245 -72.8528 264.49L-74.9123 244.465C-75.5775 237.997 -78.9705 232.121 -84.2392 228.311L-100.551 216.515C-109.312 210.179 -112.424 198.565 -108.005 188.699L-99.7759 170.327C-97.1181 164.393 -97.1181 157.607 -99.7759 151.673L-108.005 133.301C-112.424 123.435 -109.312 111.821 -100.551 105.485L-84.2392 93.6894C-78.9705 89.8794 -75.5775 84.0025 -74.9123 77.5347L-72.8528 57.51C-71.7466 46.7554 -63.2447 38.2534 -52.49 37.1472L-32.4653 35.0877C-25.9975 34.4225 -20.1206 31.0295 -16.3106 25.7608L-4.51463 9.44862C1.82061 0.687907 13.4345 -2.42404 23.3014 1.99534L41.6731 10.2241C47.607 12.8819 54.393 12.8819 60.3269 10.2241L78.6986 1.99535Z" fill="white"/>
</svg>
