<svg width="322" height="60" viewBox="0 0 322 60" fill="none" xmlns="http://www.w3.org/2000/svg">
<path opacity="0.32" d="M188.699 -260.005C198.565 -264.424 210.179 -261.312 216.515 -252.551L228.311 -236.239C232.121 -230.971 237.997 -227.578 244.465 -226.912L264.49 -224.853C275.245 -223.747 283.747 -215.245 284.853 -204.49L286.912 -184.465C287.578 -177.997 290.97 -172.121 296.239 -168.311L312.551 -156.515C321.312 -150.179 324.424 -138.565 320.005 -128.699L311.776 -110.327C309.118 -104.393 309.118 -97.607 311.776 -91.6731L320.005 -73.3014C324.424 -63.4346 321.312 -51.8206 312.551 -45.4854L296.239 -33.6894C290.971 -29.8794 287.578 -24.0026 286.912 -17.5347L284.853 2.49002C283.747 13.2447 275.245 21.7466 264.49 22.8528L244.465 24.9123C237.997 25.5775 232.121 28.9705 228.311 34.2392L216.515 50.5514C210.179 59.3121 198.565 62.424 188.699 58.0046L170.327 49.7759C164.393 47.118 157.607 47.118 151.673 49.7759L133.301 58.0046C123.435 62.424 111.821 59.3121 105.485 50.5514L93.6894 34.2392C89.8794 28.9705 84.0025 25.5775 77.5347 24.9123L57.51 22.8528C46.7553 21.7466 38.2534 13.2447 37.1472 2.49002L35.0877 -17.5347C34.4225 -24.0025 31.0295 -29.8794 25.7608 -33.6894L9.44862 -45.4854C0.687907 -51.8206 -2.42404 -63.4346 1.99534 -73.3014L10.2241 -91.6731C12.8819 -97.607 12.8819 -104.393 10.2241 -110.327L1.99535 -128.699C-2.42404 -138.565 0.687904 -150.179 9.44862 -156.515L25.7608 -168.311C31.0295 -172.121 34.4225 -177.997 35.0877 -184.465L37.1472 -204.49C38.2534 -215.245 46.7553 -223.747 57.51 -224.853L77.5347 -226.912C84.0025 -227.578 89.8794 -230.971 93.6894 -236.239L105.485 -252.551C111.821 -261.312 123.435 -264.424 133.301 -260.005L151.673 -251.776C157.607 -249.118 164.393 -249.118 170.327 -251.776L188.699 -260.005Z" fill="white"/>
</svg>
