<svg width="270" height="251" viewBox="0 0 270 251" fill="none" xmlns="http://www.w3.org/2000/svg">
<path opacity="0.32" d="M188.699 1.99535C198.565 -2.42404 210.179 0.687903 216.515 9.44862L228.311 25.7608C232.121 31.0295 237.997 34.4225 244.465 35.0877L264.49 37.1472C275.245 38.2534 283.747 46.7553 284.853 57.51L286.912 77.5347C287.578 84.0025 290.97 89.8794 296.239 93.6894L312.551 105.485C321.312 111.821 324.424 123.435 320.005 133.301L311.776 151.673C309.118 157.607 309.118 164.393 311.776 170.327L320.005 188.699C324.424 198.565 321.312 210.179 312.551 216.515L296.239 228.311C290.971 232.121 287.578 237.997 286.912 244.465L284.853 264.49C283.747 275.245 275.245 283.747 264.49 284.853L244.465 286.912C237.997 287.578 232.121 290.97 228.311 296.239L216.515 312.551C210.179 321.312 198.565 324.424 188.699 320.005L170.327 311.776C164.393 309.118 157.607 309.118 151.673 311.776L133.301 320.005C123.435 324.424 111.821 321.312 105.485 312.551L93.6894 296.239C89.8794 290.97 84.0025 287.578 77.5347 286.912L57.51 284.853C46.7553 283.747 38.2534 275.245 37.1472 264.49L35.0877 244.465C34.4225 237.997 31.0295 232.121 25.7608 228.311L9.44862 216.515C0.687907 210.179 -2.42404 198.565 1.99534 188.699L10.2241 170.327C12.8819 164.393 12.8819 157.607 10.2241 151.673L1.99535 133.301C-2.42404 123.435 0.687904 111.821 9.44862 105.485L25.7608 93.6894C31.0295 89.8794 34.4225 84.0025 35.0877 77.5347L37.1472 57.51C38.2534 46.7554 46.7553 38.2534 57.51 37.1472L77.5347 35.0877C84.0025 34.4225 89.8794 31.0295 93.6894 25.7608L105.485 9.44862C111.821 0.687907 123.435 -2.42404 133.301 1.99534L151.673 10.2241C157.607 12.8819 164.393 12.8819 170.327 10.2241L188.699 1.99535Z" fill="white"/>
</svg>
