<svg width="52" height="52" viewBox="0 0 52 52" fill="none" xmlns="http://www.w3.org/2000/svg">
<circle cx="25.8878" cy="26.143" r="21" transform="rotate(15 25.8878 26.143)" fill="#4B4B4B"/>
<path fill-rule="evenodd" clip-rule="evenodd" d="M37.4533 29.3321C37.5443 28.9925 37.336 28.7268 36.9899 28.7383L13.172 29.5586C12.8251 29.5706 12.4698 29.8561 12.3789 30.1951L10.5387 37.0631C10.4477 37.4027 10.6552 37.6689 11.0021 37.6569L34.8198 36.8372C35.1661 36.825 35.5221 36.5398 35.6131 36.2001L37.4533 29.3321Z" fill="url(#paint0_linear_2010_640)"/>
<path fill-rule="evenodd" clip-rule="evenodd" d="M14.3321 22.906C14.2411 23.2456 14.4061 23.6705 14.7005 23.8543L34.9203 36.4752C35.2148 36.659 35.5276 36.5323 35.6184 36.1932L37.4589 29.3246C37.5497 28.9856 37.3847 28.5608 37.0903 28.3769L16.8705 15.7561C16.576 15.5722 16.2634 15.6983 16.1724 16.038L14.3321 22.906V22.906Z" fill="#FF9800"/>
<path fill-rule="evenodd" clip-rule="evenodd" d="M41.2335 15.2225C41.3246 14.8829 41.1164 14.6165 40.7701 14.6287L16.9524 15.4484C16.6055 15.4604 16.2502 15.7458 16.1591 16.0855L14.3189 22.9534C14.2279 23.2931 14.4355 23.5586 14.7823 23.5473L38.6002 22.7269C38.9465 22.7148 39.3024 22.4295 39.3933 22.0905L41.2335 15.2225Z" fill="#FF9800"/>
<defs>
<linearGradient id="paint0_linear_2010_640" x1="24.4035" y1="36.421" x2="28.5092" y2="30.8675" gradientUnits="userSpaceOnUse">
<stop stop-color="#FF9700"/>
<stop offset="0.53" stop-color="#F48E00"/>
<stop offset="1" stop-color="#D06F00"/>
</linearGradient>
</defs>
</svg>
