<svg width="32" height="32" viewBox="0 0 32 32" fill="none" xmlns="http://www.w3.org/2000/svg">
<circle cx="16.0003" cy="16" r="15.2727" fill="#4B4B4B"/>
<path fillRule="evenodd" clipRule="evenodd" d="M24.7246 16.0632C24.7246 15.8075 24.5282 15.66 24.2872 15.7333L7.70979 20.7928C7.46834 20.8666 7.27246 21.134 7.27246 21.3892V26.5603C7.27246 26.816 7.46834 26.964 7.70979 26.8902L24.2872 21.8311C24.5282 21.7574 24.7246 21.49 24.7246 21.2343V16.0632Z" fill="url(#paint0_linear_2005_648)"/>
<path fillRule="evenodd" clipRule="evenodd" d="M7.27246 15.9011C7.27246 16.1568 7.46834 16.4242 7.70979 16.4979L24.2897 21.558C24.5311 21.6317 24.727 21.4838 24.727 21.2285V16.0569C24.727 15.8017 24.5311 15.5343 24.2897 15.4605L7.70979 10.4005C7.46834 10.3268 7.27246 10.4743 7.27246 10.73V15.9011V15.9011Z" fill="#FF9800"/>
<path fillRule="evenodd" clipRule="evenodd" d="M24.7246 5.43977C24.7246 5.18404 24.5282 5.0361 24.2872 5.10984L7.70979 10.1689C7.46834 10.2427 7.27246 10.5101 7.27246 10.7658V15.9369C7.27246 16.1926 7.46834 16.3401 7.70979 16.2668L24.2872 11.2073C24.5282 11.1335 24.7246 10.8661 24.7246 10.6109V5.43977Z" fill="#FF9800"/>
<defs>
<linearGradient id="paint0_linear_2005_648" x1="16.8916" y1="23.4995" x2="18.7304" y2="18.8253" gradientUnits="userSpaceOnUse">
<stop stop-color="#FF9700"/>
<stop offset="0.53" stop-color="#F48E00"/>
<stop offset="1" stop-color="#D06F00"/>
</linearGradient>
</defs>
</svg>
