<svg width="295" height="36" viewBox="0 0 295 36" fill="none" xmlns="http://www.w3.org/2000/svg">
<g clip-path="url(#clip0_931_900)">
<path d="M91.5334 15.1702H86.2246V25.3043C86.2246 28.0065 88.0249 27.9627 91.5334 27.795V31.8902C84.428 32.7362 81.6006 30.7925 81.6006 25.3043V15.1702H77.6614V10.7759H81.6006V5.10535L86.2246 3.75607V10.7759H91.5334V15.1702ZM111.774 10.7759H116.398V31.8902H111.774V28.8489C110.147 31.0879 107.618 32.4408 104.279 32.4408C98.4583 32.4408 93.6208 27.5835 93.6208 21.3331C93.6208 15.0425 98.4583 10.2289 104.279 10.2289C107.618 10.2289 110.147 11.5782 111.774 13.7735V10.7759ZM105.008 28.0904C108.862 28.0904 111.774 25.2605 111.774 21.3331C111.774 17.4056 108.862 14.5758 105.008 14.5758C101.153 14.5758 98.2448 17.4056 98.2448 21.3331C98.2448 25.2605 101.153 28.0904 105.008 28.0904ZM124.104 7.61061C122.477 7.61061 121.148 6.2577 121.148 4.69692C121.151 4.31402 121.229 3.93476 121.376 3.58103C121.525 3.22735 121.742 2.90618 122.016 2.63587C122.291 2.36556 122.616 2.15141 122.974 2.00567C123.331 1.8598 123.717 1.78322 124.104 1.78322C124.49 1.78322 124.873 1.8598 125.234 2.00567C125.591 2.15154 125.915 2.36669 126.191 2.63655C126.464 2.91005 126.681 3.23095 126.832 3.58103C126.979 3.93476 127.056 4.31402 127.056 4.69692C127.056 6.2577 125.731 7.61061 124.104 7.61061ZM121.792 31.8902V10.7759H126.416V31.8902H121.792ZM131.769 31.8902V1.06483H136.393V31.8902H131.769ZM166.405 10.7759H171.286L164.564 31.8902H160.024L155.573 17.6609L151.078 31.8902H146.539L139.817 10.7759H144.698L148.851 25.3444L153.346 10.7759H157.757L162.208 25.3444L166.405 10.7759ZM177.022 7.61061C175.395 7.61061 174.069 6.2577 174.069 4.69692C174.069 4.31402 174.147 3.93476 174.294 3.58103C174.445 3.23095 174.662 2.91005 174.935 2.63655C175.211 2.36669 175.535 2.15154 175.892 2.00567C176.253 1.8598 176.635 1.78322 177.022 1.78322C177.804 1.7834 178.555 2.09017 179.109 2.63655C179.386 2.91005 179.603 3.23095 179.75 3.58103C179.901 3.93476 179.978 4.31402 179.978 4.69692C179.978 6.2577 178.649 7.61061 177.022 7.61061ZM174.71 31.8902V10.7759H179.334V31.8902H174.71ZM204.17 18.9263V31.8902H199.546V19.393C199.546 16.1803 197.661 14.4919 194.749 14.4919C191.708 14.4919 189.311 16.2678 189.311 20.5746V31.8902H184.687V10.7759H189.311V13.4781C190.725 11.2828 193.037 10.2289 195.949 10.2289C200.742 10.2289 204.17 13.438 204.17 18.9263ZM226.089 2.33022H230.713V31.8902H226.089V28.8489C224.462 31.0879 221.937 32.4408 218.597 32.4408C212.773 32.4408 207.936 27.5835 207.936 21.3331C207.936 15.0425 212.773 10.2289 218.597 10.2289C221.937 10.2289 224.462 11.5782 226.089 13.7735V2.33022ZM219.326 28.0904C223.177 28.0904 226.089 25.2605 226.089 21.3331C226.089 17.4056 223.177 14.5758 219.326 14.5758C215.472 14.5758 212.56 17.4056 212.56 21.3331C212.56 25.2605 215.472 28.0904 219.326 28.0904ZM234.91 21.3331C234.91 15.0425 239.748 10.2289 246.213 10.2289C250.41 10.2289 254.047 12.3805 255.759 15.6771L251.779 17.9562C250.837 15.9724 248.738 14.7034 246.168 14.7034C242.402 14.7034 239.534 17.5332 239.534 21.3331C239.534 25.1329 242.402 27.9627 246.168 27.9627C248.738 27.9627 250.837 26.6536 251.864 24.7135L255.847 26.9489C254.047 30.2857 250.41 32.4408 246.213 32.4408C239.748 32.4408 234.91 27.5835 234.91 21.3331ZM274.984 25.9352C274.984 30.158 271.258 32.4408 266.634 32.4408C262.352 32.4408 259.271 30.5373 257.901 27.4996L261.881 25.2168C262.57 27.1203 264.281 28.2581 266.634 28.2581C268.692 28.2581 270.275 27.5835 270.275 25.8951C270.275 22.1353 258.759 24.2468 258.759 16.6872C258.759 12.7196 262.227 10.2289 266.593 10.2289C270.102 10.2289 273.014 11.8335 274.512 14.6195L270.617 16.7747C269.848 15.1264 268.35 14.3679 266.593 14.3679C264.922 14.3679 263.468 15.0827 263.468 16.6033C263.468 20.4469 274.984 18.124 274.984 25.9352ZM294.724 25.9352C294.724 30.158 290.998 32.4408 286.374 32.4408C282.093 32.4408 279.008 30.5373 277.638 27.4996L281.621 25.2168C282.306 27.1203 284.018 28.2581 286.374 28.2581C288.429 28.2581 290.012 27.5835 290.012 25.8951C290.012 22.1353 278.496 24.2468 278.496 16.6872C278.496 12.7196 281.964 10.2289 286.33 10.2289C289.842 10.2289 292.754 11.8335 294.253 14.6195L290.354 16.7747C289.585 15.1264 288.086 14.3679 286.33 14.3679C284.662 14.3679 283.205 15.0827 283.205 16.6033C283.205 20.4469 294.724 18.124 294.724 25.9352Z" fill="#707070"/>
<path d="M30.6963 0C22.5859 0 17.5128 4.0004 15.4843 12.0012C18.5289 8.00081 22.0779 6.49838 26.1349 7.49757C28.4469 8.0701 30.0999 9.72569 31.9333 11.56C34.9153 14.5429 38.3686 18 45.9084 18C54.0188 18 59.0882 13.9996 61.1167 5.99878C58.0758 9.99919 54.5268 11.498 50.4698 10.4988C48.1578 9.9299 46.5011 8.27066 44.6714 6.44003C41.6893 3.4534 38.2361 0 30.6963 0ZM15.4843 18C7.37386 18 2.3044 22.0004 0.275879 30.0012C3.31682 26.0008 6.86581 24.502 10.9228 25.5012C13.2385 26.0701 14.8915 27.7293 16.7212 29.56C19.7033 32.5466 23.1565 36 30.6963 36C38.8104 36 43.8798 31.9996 45.9084 23.9988C42.8637 27.9992 39.3148 29.5016 35.2614 28.5024C32.9457 27.9299 31.2927 26.2743 29.4593 24.44C26.4773 21.457 23.024 18 15.4843 18Z" fill="#707070"/>
</g>
<defs>
<clipPath id="clip0_931_900">
<rect width="295" height="36" fill="white"/>
</clipPath>
</defs>
</svg>
