<svg width="36" height="36" viewBox="0 0 36 36" fill="none" xmlns="http://www.w3.org/2000/svg">
<path d="M20.8706 3.7441C20.6155 2.91164 19.6835 3.19718 19.3011 3.42814C19.7408 2.79262 20.4548 2.69528 20.739 2.75999L27.1808 3.79034C27.7946 3.88852 28.2999 4.32926 28.4827 4.9259L34.0173 22.9914C34.2025 23.5961 34.0235 24.2528 33.5579 24.677L29.0513 28.7834C28.7367 29.0505 28.0676 29.6766 27.239 29.3386C28.1153 29.2409 28.3834 28.5137 28.3303 28.0937L20.8706 3.7441Z" fill="url(#paint0_linear_264_2627)"/>
<path d="M19.3637 3.3925C19.7768 3.17092 20.6286 2.95404 20.8706 3.74406L22.7757 9.96242L9.73115 28.0096C9.50314 28.3251 9.07404 28.4158 8.73745 28.2197L6.4073 26.8622C6.04226 26.6495 5.91919 26.1793 6.13329 25.8153L19.3011 3.4281L19.3637 3.3925Z" fill="url(#paint1_linear_264_2627)"/>
<path d="M26.4569 21.9794L5.54182 14.336C5.17624 14.2024 4.76997 14.3676 4.60097 14.7186L3.4311 17.1484C3.24782 17.529 3.40926 17.9875 3.79052 18.1691L27.2388 29.3386C28.1151 29.2409 28.3832 28.5137 28.3301 28.0937L26.4569 21.9794Z" fill="url(#paint2_linear_264_2627)"/>
<defs>
<linearGradient id="paint0_linear_264_2627" x1="23.1874" y1="1.87734" x2="31.3116" y2="28.3962" gradientUnits="userSpaceOnUse">
<stop stop-color="#32B5F1"/>
<stop offset="1" stop-color="#2B9FED"/>
</linearGradient>
<linearGradient id="paint1_linear_264_2627" x1="21.5719" y1="6.03332" x2="7.51501" y2="27.7145" gradientUnits="userSpaceOnUse">
<stop stop-color="#0F6FB3"/>
<stop offset="0.270551" stop-color="#1279B7"/>
<stop offset="0.421376" stop-color="#1176B5"/>
<stop offset="0.618197" stop-color="#0E69AC"/>
<stop offset="0.855344" stop-color="#0F70AF"/>
<stop offset="1" stop-color="#0F6DAD"/>
</linearGradient>
<linearGradient id="paint2_linear_264_2627" x1="4.06611" y1="16.0063" x2="27.7227" y2="25.8496" gradientUnits="userSpaceOnUse">
<stop stop-color="#1791D2"/>
<stop offset="1" stop-color="#1173C5"/>
</linearGradient>
</defs>
</svg>
