<svg width="52" height="52" viewBox="0 0 52 52" fill="none" xmlns="http://www.w3.org/2000/svg">
<circle cx="25.7198" cy="25.7196" r="21" transform="rotate(15 25.7198 25.7196)" fill="#028CB0"/>
<path d="M11.8909 22.0145C10.4225 27.4947 12.3453 33.0688 16.3539 36.5475L14.6002 16.7092C13.3338 18.2673 12.4106 20.0751 11.8909 22.0145ZM22.0145 39.5491C23.6205 39.9794 25.2408 40.1114 26.8222 39.9963L26.7734 39.7862L25.64 26.9994L18.267 37.9405C19.3944 38.6368 20.6537 39.1845 22.0145 39.5491ZM29.358 19.7437L30.3753 35.9552L32.9959 31.7167C34.0968 29.9618 34.9183 28.7103 35.237 27.5211C35.6969 25.8047 35.3992 24.4635 35.1274 23.4183C34.7251 22.0754 34.3349 20.9327 34.6371 19.8048C34.9787 18.5298 36.2504 17.6091 37.6235 17.977L37.7951 18.023C35.8738 15.001 32.8861 12.812 29.4255 11.8909C27.1352 11.2768 24.7282 11.2416 22.421 11.7886C20.1138 12.3356 17.9788 13.4475 16.2079 15.0244L17.0841 15.2855C18.5307 15.6731 20.8113 16.0871 20.8113 16.0871C21.5813 16.254 21.3747 17.3681 20.6039 17.2535C20.6039 17.2535 19.8297 17.1512 18.974 16.9613L20.0107 33.2963L25.4698 25.0354L24.8955 18.548C24.4193 18.3918 23.9478 18.2217 23.4817 18.0378C22.7469 17.7883 23.1383 16.6712 23.8763 16.9083C23.8763 16.9083 26.1073 17.7032 27.4682 18.0679C28.9148 18.4555 31.1954 18.8695 31.1954 18.8695C31.9531 19.0331 31.7588 20.1505 30.988 20.0359C30.988 20.0359 30.2171 19.9214 29.358 19.7437ZM29.4684 39.5359C31.8864 38.8801 34.09 37.6011 35.859 35.827C37.6279 34.0528 38.9003 31.8454 39.5491 29.4255C40.1929 27.0226 40.1844 24.6025 39.6344 22.3396C39.2716 24.5699 38.3556 26.6736 36.9699 28.4585L29.4684 39.5359ZM21.4495 41.6578C17.2225 40.5252 13.6186 37.7598 11.4306 33.97C9.24254 30.1802 8.64961 25.6765 9.78222 21.4495C10.9148 17.2225 13.6802 13.6186 17.47 11.4306C21.2598 9.24255 25.7635 8.64962 29.9905 9.78223C34.2175 10.9148 37.8214 13.6802 40.0094 17.47C42.1975 21.2598 42.7904 25.7636 41.6578 29.9905C40.5252 34.2175 37.7598 37.8214 33.97 40.0094C30.1802 42.1975 25.6764 42.7904 21.4495 41.6578Z" fill="white"/>
</svg>
