<svg width="32" height="32" viewBox="0 0 32 32" fill="none" xmlns="http://www.w3.org/2000/svg">
<circle cx="16.0003" cy="16" r="15.2727" fill="#028CB0"/>
<path d="M5.58769 16C5.58769 20.1262 7.98769 23.68 11.4585 25.3692L6.49231 11.7631C5.89598 13.096 5.58772 14.5398 5.58769 16ZM16 26.4123C17.2092 26.4123 18.3723 26.2 19.4615 25.8215L19.3877 25.6831L16.1846 16.9138L13.0646 25.9877C13.9877 26.2646 14.9754 26.4123 16 26.4123ZM17.4308 11.1169L21.1969 22.3138L22.24 18.8431C22.6831 17.4031 23.0246 16.3692 23.0246 15.4738C23.0246 14.1815 22.5631 13.2954 22.1754 12.6123C21.64 11.7446 21.1508 11.0154 21.1508 10.1662C21.1508 9.20615 21.8708 8.32 22.9046 8.32H23.0338C21.1153 6.55869 18.6044 5.58335 16 5.58769C14.2755 5.58737 12.578 6.01575 11.0602 6.83428C9.54233 7.65282 8.25178 8.83584 7.30462 10.2769L7.96923 10.2954C9.05846 10.2954 10.7385 10.1569 10.7385 10.1569C11.3108 10.1292 11.3754 10.9508 10.8123 11.0154C10.8123 11.0154 10.2492 11.0892 9.61231 11.1169L13.4154 22.3969L15.6954 15.5662L14.0708 11.1169C13.7069 11.0968 13.3436 11.0661 12.9815 11.0246C12.4185 10.9877 12.4831 10.1292 13.0462 10.1569C13.0462 10.1569 14.7631 10.2954 15.7877 10.2954C16.8769 10.2954 18.5569 10.1569 18.5569 10.1569C19.12 10.1292 19.1938 10.9508 18.6308 11.0154C18.6308 11.0154 18.0677 11.08 17.4308 11.1169ZM21.2338 25C22.809 24.0841 24.1163 22.7709 25.025 21.1916C25.9337 19.6122 26.4121 17.8221 26.4123 16C26.4123 14.1908 25.9508 12.4923 25.1385 11.0062C25.3034 12.6412 25.0559 14.2915 24.4185 15.8062L21.2338 25ZM16 28C12.8174 28 9.76516 26.7357 7.51472 24.4853C5.26428 22.2348 4 19.1826 4 16C4 12.8174 5.26428 9.76516 7.51472 7.51472C9.76516 5.26428 12.8174 4 16 4C19.1826 4 22.2348 5.26428 24.4853 7.51472C26.7357 9.76516 28 12.8174 28 16C28 19.1826 26.7357 22.2348 24.4853 24.4853C22.2348 26.7357 19.1826 28 16 28Z" fill="white"/>
</svg>
